RecursiveTrio-TextRegularv0.0.4.ufo
<glyph name="B" format="2">
  <advance width="600.0"/>
  <unicode hex="0042"/>
  <outline>
    <contour>
      <point x="40.0" y="700.0" type="curve"/>
      <point x="40.0" y="684.0" type="line" smooth="yes"/>
      <point x="40.0" y="654.6"/>
      <point x="43.8" y="628.2"/>
      <point x="55.8" y="616.2" type="curve" smooth="yes"/>
      <point x="60.6" y="611.4"/>
      <point x="65.4" y="610.0"/>
      <point x="71.0" y="610.0" type="curve" smooth="yes"/>
      <point x="79.2" y="610.0"/>
      <point x="89.0" y="611.4"/>
      <point x="108.0" y="615.4" type="curve" smooth="yes"/>
      <point x="155.7169043094857" y="624.5159833581714"/>
      <point x="223.47484662576687" y="630.0"/>
      <point x="304.0" y="630.0" type="curve" smooth="yes"/>
      <point x="381.8" y="630.0"/>
      <point x="424.89724930633145" y="620.1818921769263"/>
      <point x="472.6" y="581.6" type="curve"/>
      <point x="491.4" y="600.4"/>
      <point x="491.6" y="639.6"/>
      <point x="472.2" y="659.0" type="curve" smooth="yes"/>
      <point x="425.0347684327179" y="706.1652315672821"/>
      <point x="375.2" y="720.0"/>
      <point x="294.8" y="720.0" type="curve" smooth="yes"/>
      <point x="209.7953488372093" y="720.0"/>
      <point x="133.7243558431174" y="714.9533446184328"/>
    </contour>
    <contour>
      <point x="184.0" y="15.600000000000001" type="line"/>
      <point x="184.0" y="195.4"/>
      <point x="184.0" y="466.4"/>
      <point x="184.0" y="646.2" type="curve" smooth="yes"/>
      <point x="184.0" y="652.4"/>
      <point x="182.0" y="656.0"/>
      <point x="177.8" y="660.2" type="curve" smooth="yes"/>
      <point x="167.4" y="670.6"/>
      <point x="134.8" y="678.0"/>
      <point x="106.0" y="678.0" type="curve" smooth="yes"/>
      <point x="90.0" y="678.0" type="line"/>
      <point x="90.0" y="550.2"/>
      <point x="90.0" y="340.8"/>
      <point x="90.0" y="213.0" type="curve" smooth="yes"/>
      <point x="90.0" y="158.4"/>
      <point x="90.0" y="106.0"/>
      <point x="90.0" y="51.400000000000006" type="curve" smooth="yes"/>
      <point x="90.0" y="32.8"/>
      <point x="133.2" y="15.600000000000001"/>
      <point x="168.0" y="15.600000000000001" type="curve" smooth="yes"/>
    </contour>
    <contour>
      <point x="531.0" y="488.2" type="curve" smooth="yes"/>
      <point x="531.0" y="530.0" type="line" smooth="yes"/>
      <point x="531.0" y="574.6"/>
      <point x="512.2" y="620.2"/>
      <point x="472.2" y="659.0" type="curve" smooth="yes"/>
      <point x="446.4" y="683.6"/>
      <point x="402.2" y="683.6"/>
      <point x="378.6" y="662.8" type="curve"/>
      <point x="422.2" y="629.6"/>
      <point x="441.0" y="590.6"/>
      <point x="441.0" y="518.0" type="curve" smooth="yes"/>
      <point x="441.0" y="490.2" type="line" smooth="yes"/>
      <point x="441.0" y="389.2"/>
      <point x="350.0" y="351.0"/>
      <point x="226.4" y="351.0" type="curve" smooth="yes"/>
      <point x="194.0" y="351.0"/>
      <point x="180.4" y="354.4"/>
      <point x="160.0" y="365.4" type="curve"/>
      <point x="152.8" y="359.4"/>
      <point x="149.6" y="349.2"/>
      <point x="149.6" y="338.4" type="curve" smooth="yes"/>
      <point x="149.6" y="306.6"/>
      <point x="187.8" y="275.0"/>
      <point x="223.8" y="275.0" type="curve" smooth="yes"/>
      <point x="389.4" y="275.0"/>
      <point x="531.0" y="344.4"/>
    </contour>
    <contour>
      <point x="522.4" y="178.2" type="curve" smooth="yes"/>
      <point x="522.4" y="212.0" type="line" smooth="yes"/>
      <point x="522.4" y="258.8"/>
      <point x="498.0" y="305.6"/>
      <point x="443.6" y="342.2" type="curve" smooth="yes"/>
      <point x="416.0" y="363.2"/>
      <point x="380.8" y="354.6"/>
      <point x="358.0" y="336.2" type="curve"/>
      <point x="409.0" y="302.4"/>
      <point x="432.4" y="277.0"/>
      <point x="432.4" y="216.0" type="curve" smooth="yes"/>
      <point x="432.4" y="188.2" type="line" smooth="yes"/>
      <point x="432.4" y="115.0"/>
      <point x="353.6" y="78.0"/>
      <point x="264.6" y="78.0" type="curve" smooth="yes"/>
      <point x="170.6" y="78.0"/>
      <point x="140.8" y="86.6"/>
      <point x="106.4" y="103.80000000000001" type="curve"/>
      <point x="94.4" y="85.80000000000001"/>
      <point x="90.0" y="65.6"/>
      <point x="90.0" y="51.400000000000006" type="curve" smooth="yes"/>
      <point x="90.0" y="20.6"/>
      <point x="154.0" y="-10.0"/>
      <point x="266.6" y="-10.0" type="curve" smooth="yes"/>
      <point x="400.2" y="-10.0"/>
      <point x="522.4" y="59.0"/>
    </contour>
  </outline>
</glyph>
<glyph name="C" format="2">
  <advance width="600.0"/>
  <unicode hex="0043"/>
  <outline>
    <contour>
      <point x="525.0" y="415.4" type="line"/>
      <point x="525.0" y="578.8" type="line" smooth="yes"/>
      <point x="525.0" y="612.4"/>
      <point x="512.2" y="645.2"/>
      <point x="483.6" y="673.8" type="curve" smooth="yes"/>
      <point x="456.8" y="700.6"/>
      <point x="425.8" y="695.6"/>
      <point x="413.4" y="670.0" type="curve"/>
      <point x="425.2" y="651.6"/>
      <point x="435.0" y="622.2"/>
      <point x="435.0" y="596.6" type="curve" smooth="yes"/>
      <point x="435.0" y="451.2" type="line" smooth="yes"/>
      <point x="435.0" y="445.4"/>
      <point x="436.6" y="441.8"/>
      <point x="441.2" y="437.2" type="curve" smooth="yes"/>
      <point x="456.0" y="422.4"/>
      <point x="479.0" y="415.4"/>
      <point x="509.0" y="415.4" type="curve" smooth="yes"/>
    </contour>
    <contour>
      <point x="390.0" y="720.0" type="curve" smooth="yes"/>
      <point x="220.0" y="720.0"/>
      <point x="73.0" y="501.0"/>
      <point x="73.0" y="258.2" type="curve" smooth="yes"/>
      <point x="73.0" y="233.6" type="line" smooth="yes"/>
      <point x="73.0" y="183.1686956521739"/>
      <point x="121.8" y="122.2"/>
      <point x="179.8" y="112.0" type="curve"/>
      <point x="166.8848553764973" y="152.72546789956752"/>
      <point x="162.6" y="197.2"/>
      <point x="162.6" y="230.8" type="curve"/>
      <point x="162.6" y="246.6" type="line"/>
      <point x="162.6" y="450.2"/>
      <point x="282.2" y="630.4"/>
      <point x="390.8" y="630.4" type="curve" smooth="yes"/>
      <point x="419.2" y="630.4"/>
      <point x="443.6" y="620.4"/>
      <point x="469.2" y="602.8" type="curve"/>
      <point x="497.6" y="619.6"/>
      <point x="506.4" y="651.0"/>
      <point x="483.6" y="673.8" type="curve"/>
      <point x="457.2" y="700.2"/>
      <point x="427.0" y="720.0"/>
    </contour>
    <contour>
      <point x="324.6" y="-20.0" type="curve" smooth="yes"/>
      <point x="454.00269058295964" y="-20.0"/>
      <point x="549.4" y="38.6"/>
      <point x="549.4" y="90.4" type="curve" smooth="yes"/>
      <point x="549.4" y="122.8"/>
      <point x="549.4" y="149.0"/>
      <point x="549.4" y="164.2" type="curve"/>
      <point x="532.8" y="164.2" type="line"/>
      <point x="483.4757420974996" y="98.95155667775984"/>
      <point x="419.6150943396226" y="70.0"/>
      <point x="324.6" y="70.0" type="curve" smooth="yes"/>
      <point x="198.9294117647059" y="70.0"/>
      <point x="148.8" y="154.7495145631068"/>
      <point x="148.8" y="280.4" type="curve"/>
      <point x="104.6" y="280.8"/>
      <point x="73.0" y="271.8"/>
      <point x="73.0" y="251.0" type="curve" smooth="yes"/>
      <point x="73.0" y="233.6" type="line" smooth="yes"/>
      <point x="73.0" y="93.27476635514019"/>
      <point x="167.33805309734512" y="-20.0"/>
    </contour>
  </outline>
</glyph>
<glyph name="D" format="2">
  <advance width="600.0"/>
  <unicode hex="0044"/>
  <outline>
    <contour>
      <point x="40.0" y="700.0" type="curve"/>
      <point x="40.0" y="684.0" type="line" smooth="yes"/>
      <point x="40.0" y="654.6"/>
      <point x="43.8" y="628.2"/>
      <point x="55.8" y="616.2" type="curve" smooth="yes"/>
      <point x="60.6" y="611.4"/>
      <point x="65.4" y="610.0"/>
      <point x="71.0" y="610.0" type="curve" smooth="yes"/>
      <point x="79.2" y="610.0"/>
      <point x="89.0" y="611.4"/>
      <point x="108.0" y="615.4" type="curve" smooth="yes"/>
      <point x="151.05670895802893" y="623.5139271032966"/>
      <point x="211.6621931260229" y="630.0"/>
      <point x="284.0" y="630.0" type="curve" smooth="yes"/>
      <point x="366.3639344262295" y="630.0"/>
      <point x="408.3486439593189" y="613.6563108393251"/>
      <point x="462.2" y="569.0" type="curve"/>
      <point x="477.27020414052373" y="584.0702041405237"/>
      <point x="478.6538777080633" y="632.5461222919367"/>
      <point x="458.2" y="653.0" type="curve" smooth="yes"/>
      <point x="407.9577750056982" y="703.2422249943019"/>
      <point x="358.196449704142" y="720.0"/>
      <point x="274.8" y="720.0" type="curve" smooth="yes"/>
      <point x="196.24584837545126" y="720.0"/>
      <point x="126.57815628325224" y="714.0279264551195"/>
    </contour>
    <contour>
      <point x="184.0" y="21.4" type="curve"/>
      <point x="184.0" y="197.8"/>
      <point x="184.0" y="469.51107828655836"/>
      <point x="184.0" y="646.2" type="curve" smooth="yes"/>
      <point x="184.0" y="652.4"/>
      <point x="182.0" y="656.0"/>
      <point x="177.8" y="660.2" type="curve" smooth="yes"/>
      <point x="167.4" y="670.6"/>
      <point x="134.8" y="678.0"/>
      <point x="106.0" y="678.0" type="curve" smooth="yes"/>
      <point x="90.0" y="678.0" type="line"/>
      <point x="90.0" y="549.0"/>
      <point x="90.0" y="336.0"/>
      <point x="90.0" y="207.0" type="curve" smooth="yes"/>
      <point x="90.0" y="158.933870005963"/>
      <point x="90.0" y="109.8"/>
      <point x="90.0" y="61.400000000000006" type="curve" smooth="yes"/>
      <point x="90.0" y="39.2"/>
      <point x="132.6" y="21.4"/>
    </contour>
    <contour>
      <point x="531.0" y="314.2" type="curve" smooth="yes"/>
      <point x="531.0" y="418.0" type="line" smooth="yes"/>
      <point x="531.0" y="499.40338983050844"/>
      <point x="520.743981722561" y="590.4560182774391"/>
      <point x="458.2" y="653.0" type="curve" smooth="yes"/>
      <point x="432.56642587904497" y="678.633574120955"/>
      <point x="387.10661298697545" y="681.9066129869755"/>
      <point x="359.8" y="657.4" type="curve"/>
      <point x="425.7349676655774" y="606.7985464686926"/>
      <point x="441.0" y="532.2840425531915"/>
      <point x="441.0" y="406.0" type="curve" smooth="yes"/>
      <point x="441.0" y="316.2" type="line" smooth="yes"/>
      <point x="441.0" y="175.0"/>
      <point x="362.5276595744681" y="82.0"/>
      <point x="234.0" y="82.0" type="curve" smooth="yes"/>
      <point x="180.18227848101267" y="82.0"/>
      <point x="148.9422680412371" y="89.6"/>
      <point x="103.4" y="110.0" type="curve"/>
      <point x="93.96943877982574" y="99.25033801721685"/>
      <point x="90.0" y="81.14357366771159"/>
      <point x="90.0" y="61.400000000000006" type="curve" smooth="yes"/>
      <point x="90.0" y="26.864"/>
      <point x="158.8" y="-10.0"/>
      <point x="245.0" y="-10.0" type="curve" smooth="yes"/>
      <point x="406.0" y="-10.0"/>
      <point x="531.0" y="115.8"/>
    </contour>
  </outline>
</glyph>
<glyph name="E" format="2">
  <advance width="600.0"/>
  <unicode hex="0045"/>
  <outline>
    <contour>
      <point x="40.0" y="700.0" type="curve"/>
      <point x="40.0" y="684.0" type="line" smooth="yes"/>
      <point x="40.0" y="655.2"/>
      <point x="44.2" y="627.8"/>
      <point x="55.8" y="616.2" type="curve" smooth="yes"/>
      <point x="60.0" y="612.0"/>
      <point x="63.6" y="610.0"/>
      <point x="69.8" y="610.0" type="curve"/>
      <point x="131.86511627906978" y="610.0"/>
      <point x="186.93488372093023" y="610.0"/>
      <point x="249.0" y="610.0" type="curve" smooth="yes"/>
      <point x="343.6" y="610.0"/>
      <point x="443.4" y="610.0"/>
      <point x="538.0" y="610.0" type="curve"/>
      <point x="538.0" y="626.0" type="line" smooth="yes"/>
      <point x="538.0" y="645.6"/>
      <point x="526.6" y="675.4"/>
      <point x="508.2" y="693.8" type="curve" smooth="yes"/>
      <point x="504.0" y="698.0"/>
      <point x="500.4" y="700.0"/>
      <point x="494.2" y="700.0" type="curve" smooth="yes"/>
      <point x="339.704347826087" y="700.0"/>
      <point x="194.49565217391304" y="700.0"/>
    </contour>
    <contour>
      <point x="184.0" y="44.2" type="line"/>
      <point x="184.0" y="223.0"/>
      <point x="184.0" y="461.4"/>
      <point x="184.0" y="640.2" type="curve" smooth="yes"/>
      <point x="184.0" y="646.4"/>
      <point x="182.0" y="650.0"/>
      <point x="177.8" y="654.2" type="curve" smooth="yes"/>
      <point x="167.4" y="664.6"/>
      <point x="134.8" y="672.0"/>
      <point x="106.0" y="672.0" type="curve" smooth="yes"/>
      <point x="90.0" y="672.0" type="line"/>
      <point x="90.0" y="570.2"/>
      <point x="90.0" y="368.8"/>
      <point x="90.0" y="267.0" type="curve" smooth="yes"/>
      <point x="90.0" y="192.6"/>
      <point x="90.0" y="154.4"/>
      <point x="90.0" y="80.0" type="curve" smooth="yes"/>
      <point x="90.0" y="73.80000000000001"/>
      <point x="92.0" y="70.2"/>
      <point x="96.2" y="66.0" type="curve" smooth="yes"/>
      <point x="111.4" y="50.8"/>
      <point x="139.2" y="44.2"/>
      <point x="168.0" y="44.2" type="curve" smooth="yes"/>
    </contour>
    <contour>
      <point x="130.0" y="370.0" type="curve"/>
      <point x="130.0" y="354.0" type="line" smooth="yes"/>
      <point x="130.0" y="325.2"/>
      <point x="136.6" y="309.4"/>
      <point x="151.8" y="294.2" type="curve" smooth="yes"/>
      <point x="156.0" y="290.0"/>
      <point x="159.6" y="288.0"/>
      <point x="165.8" y="288.0" type="curve"/>
      <point x="212.0" y="288.0"/>
      <point x="210.8" y="288.0"/>
      <point x="257.0" y="288.0" type="curve" smooth="yes"/>
      <point x="332.4" y="288.0"/>
      <point x="394.6" y="288.0"/>
      <point x="470.0" y="288.0" type="curve"/>
      <point x="470.0" y="304.0" type="line" smooth="yes"/>
      <point x="470.0" y="323.6"/>
      <point x="462.6" y="345.4"/>
      <point x="444.2" y="363.8" type="curve" smooth="yes"/>
      <point x="440.0" y="368.0"/>
      <point x="436.4" y="370.0"/>
      <point x="430.2" y="370.0" type="curve" smooth="yes"/>
      <point x="311.0" y="370.0"/>
      <point x="249.2" y="370.0"/>
    </contour>
    <contour>
      <point x="90.0" y="90.0" type="curve"/>
      <point x="90.0" y="74.0" type="line" smooth="yes"/>
      <point x="90.0" y="45.2"/>
      <point x="96.6" y="21.4"/>
      <point x="111.8" y="6.2" type="curve" smooth="yes"/>
      <point x="116.0" y="2.0"/>
      <point x="119.6" y="0.0"/>
      <point x="125.8" y="0.0" type="curve"/>
      <point x="176.2" y="0.0"/>
      <point x="178.6" y="0.0"/>
      <point x="229.0" y="0.0" type="curve" smooth="yes"/>
      <point x="322.8103896103896" y="0.0"/>
      <point x="444.1896103896104" y="0.0"/>
      <point x="538.0" y="0.0" type="curve"/>
      <point x="538.0" y="16.0" type="line" smooth="yes"/>
      <point x="538.0" y="35.6"/>
      <point x="526.6" y="65.4"/>
      <point x="508.2" y="83.80000000000001" type="curve" smooth="yes"/>
      <point x="504.0" y="88.0"/>
      <point x="500.4" y="90.0"/>
      <point x="494.2" y="90.0" type="curve" smooth="yes"/>
      <point x="352.7512195121951" y="90.0"/>
      <point x="231.44878048780487" y="90.0"/>
    </contour>
  </outline>
</glyph>
<glyph name="F" format="2">
  <advance width="600.0"/>
  <unicode hex="0046"/>
  <outline>
    <contour>
      <point x="184.0" y="-10.0" type="line"/>
      <point x="184.0" y="172.54625000000001"/>
      <point x="184.0" y="457.65375"/>
      <point x="184.0" y="640.2" type="curve" smooth="yes"/>
      <point x="184.0" y="646.4"/>
      <point x="182.0" y="650.0"/>
      <point x="177.8" y="654.2" type="curve" smooth="yes"/>
      <point x="167.4" y="664.6"/>
      <point x="134.8" y="672.0"/>
      <point x="106.0" y="672.0" type="curve" smooth="yes"/>
      <point x="90.0" y="672.0" type="line"/>
      <point x="90.0" y="570.2"/>
      <point x="90.0" y="368.8"/>
      <point x="90.0" y="267.0" type="curve" smooth="yes"/>
      <point x="90.0" y="187.23724137931035"/>
      <point x="90.0" y="105.56275862068966"/>
      <point x="90.0" y="25.8" type="curve" smooth="yes"/>
      <point x="90.0" y="19.6"/>
      <point x="92.0" y="16.0"/>
      <point x="96.2" y="11.8" type="curve" smooth="yes"/>
      <point x="111.4" y="-3.4"/>
      <point x="139.2" y="-10.0"/>
      <point x="168.0" y="-10.0" type="curve" smooth="yes"/>
    </contour>
    <contour>
      <point x="40.0" y="700.0" type="curve"/>
      <point x="40.0" y="684.0" type="line" smooth="yes"/>
      <point x="40.0" y="655.2"/>
      <point x="44.2" y="627.8"/>
      <point x="55.8" y="616.2" type="curve" smooth="yes"/>
      <point x="60.0" y="612.0"/>
      <point x="63.6" y="610.0"/>
      <point x="69.8" y="610.0" type="curve"/>
      <point x="131.86511627906978" y="610.0"/>
      <point x="186.93488372093023" y="610.0"/>
      <point x="249.0" y="610.0" type="curve" smooth="yes"/>
      <point x="343.6" y="610.0"/>
      <point x="443.4" y="610.0"/>
      <point x="538.0" y="610.0" type="curve"/>
      <point x="538.0" y="626.0" type="line" smooth="yes"/>
      <point x="538.0" y="645.6"/>
      <point x="526.6" y="675.4"/>
      <point x="508.2" y="693.8" type="curve" smooth="yes"/>
      <point x="504.0" y="698.0"/>
      <point x="500.4" y="700.0"/>
      <point x="494.2" y="700.0" type="curve" smooth="yes"/>
      <point x="339.704347826087" y="700.0"/>
      <point x="194.49565217391304" y="700.0"/>
    </contour>
    <contour>
      <point x="118.0" y="320.0" type="curve"/>
      <point x="118.0" y="304.0" type="line" smooth="yes"/>
      <point x="118.0" y="275.2"/>
      <point x="124.6" y="251.4"/>
      <point x="139.8" y="236.2" type="curve" smooth="yes"/>
      <point x="144.0" y="232.0"/>
      <point x="147.6" y="230.0"/>
      <point x="153.8" y="230.0" type="curve"/>
      <point x="200.0" y="230.0"/>
      <point x="198.8" y="230.0"/>
      <point x="245.0" y="230.0" type="curve" smooth="yes"/>
      <point x="330.1297297297298" y="230.0"/>
      <point x="408.8702702702702" y="230.0"/>
      <point x="494.0" y="230.0" type="curve"/>
      <point x="494.0" y="246.0" type="line" smooth="yes"/>
      <point x="494.0" y="265.6"/>
      <point x="482.6" y="295.4"/>
      <point x="464.2" y="313.8" type="curve" smooth="yes"/>
      <point x="460.0" y="318.0"/>
      <point x="456.4" y="320.0"/>
      <point x="450.2" y="320.0" type="curve" smooth="yes"/>
      <point x="321.61889250814335" y="320.0"/>
      <point x="246.58110749185667" y="320.0"/>
    </contour>
  </outline>
</glyph>
<glyph name="G" format="2">
  <advance width="600.0"/>
  <unicode hex="0047"/>
  <outline>
    <contour>
      <point x="525.0" y="466.2" type="line"/>
      <point x="525.0" y="578.8" type="line" smooth="yes"/>
      <point x="525.0" y="612.4"/>
      <point x="512.2" y="645.2"/>
      <point x="483.6" y="673.8" type="curve" smooth="yes"/>
      <point x="456.8" y="700.6"/>
      <point x="425.8" y="695.6"/>
      <point x="413.4" y="670.0" type="curve"/>
      <point x="425.2" y="651.6"/>
      <point x="435.0" y="622.2"/>
      <point x="435.0" y="596.6" type="curve" smooth="yes"/>
      <point x="435.0" y="502.0" type="line" smooth="yes"/>
      <point x="435.0" y="496.2"/>
      <point x="436.6" y="492.6"/>
      <point x="441.2" y="488.0" type="curve" smooth="yes"/>
      <point x="456.0" y="473.2"/>
      <point x="479.0" y="466.2"/>
      <point x="509.0" y="466.2" type="curve" smooth="yes"/>
    </contour>
    <contour>
      <point x="381.6" y="720.0" type="curve" smooth="yes"/>
      <point x="219.6" y="720.0"/>
      <point x="73.0" y="600.2"/>
      <point x="73.0" y="350.2" type="curve" smooth="yes"/>
      <point x="73.0" y="233.6" type="line" smooth="yes"/>
      <point x="73.0" y="183.2"/>
      <point x="121.8" y="122.2"/>
      <point x="179.8" y="112.0" type="curve"/>
      <point x="166.8" y="153.0"/>
      <point x="162.6" y="197.2"/>
      <point x="162.6" y="230.8" type="curve" smooth="yes"/>
      <point x="162.6" y="346.4" type="line" smooth="yes"/>
      <point x="162.6" y="546.4"/>
      <point x="278.0" y="634.4"/>
      <point x="382.4" y="634.4" type="curve" smooth="yes"/>
      <point x="419.2" y="634.4"/>
      <point x="443.6" y="624.4"/>
      <point x="469.2" y="606.8" type="curve"/>
      <point x="497.6" y="623.6"/>
      <point x="506.4" y="651.0"/>
      <point x="483.6" y="673.8" type="curve"/>
      <point x="457.2" y="700.2"/>
      <point x="427.0" y="720.0"/>
    </contour>
    <contour>
      <point x="324.6" y="-20.0" type="curve" smooth="yes"/>
      <point x="440.6" y="-20.0"/>
      <point x="527.8" y="51.4"/>
      <point x="527.8" y="158.2" type="curve" smooth="yes"/>
      <point x="527.8" y="201.2"/>
      <point x="512.8" y="234.8"/>
      <point x="492.4" y="255.2" type="curve" smooth="yes"/>
      <point x="485.2" y="262.4"/>
      <point x="470.8" y="267.8"/>
      <point x="458.4" y="267.8" type="curve"/>
      <point x="463.6" y="247.6"/>
      <point x="465.8" y="229.0"/>
      <point x="465.8" y="209.2" type="curve" smooth="yes"/>
      <point x="465.8" y="107.0"/>
      <point x="399.4" y="70.0"/>
      <point x="324.6" y="70.0" type="curve" smooth="yes"/>
      <point x="199.0" y="70.0"/>
      <point x="151.2" y="155.6"/>
      <point x="151.2" y="290.0" type="curve"/>
      <point x="107.0" y="290.4"/>
      <point x="73.0" y="303.8"/>
      <point x="73.0" y="283.0" type="curve" smooth="yes"/>
      <point x="73.0" y="233.6" type="line" smooth="yes"/>
      <point x="73.0" y="93.0"/>
      <point x="167.2" y="-20.0"/>
    </contour>
    <contour>
      <point x="304.0" y="322.0" type="curve"/>
      <point x="304.0" y="306.0" type="line" smooth="yes"/>
      <point x="304.0" y="277.2"/>
      <point x="310.6" y="261.4"/>
      <point x="325.8" y="246.2" type="curve" smooth="yes"/>
      <point x="330.0" y="242.0"/>
      <point x="333.6" y="240.0"/>
      <point x="339.8" y="240.0" type="curve"/>
      <point x="386.0" y="240.0"/>
      <point x="354.8" y="240.0"/>
      <point x="401.0" y="240.0" type="curve" smooth="yes"/>
      <point x="464.47843137254904" y="240.0"/>
      <point x="510.52156862745096" y="240.0"/>
      <point x="574.0" y="240.0" type="curve"/>
      <point x="574.0" y="256.0" type="line" smooth="yes"/>
      <point x="574.0" y="275.6"/>
      <point x="566.6" y="297.4"/>
      <point x="548.2" y="315.8" type="curve" smooth="yes"/>
      <point x="544.0" y="320.0"/>
      <point x="540.4" y="322.0"/>
      <point x="534.2" y="322.0" type="curve" smooth="yes"/>
      <point x="431.2758620689655" y="322.0"/>
      <point x="406.92413793103447" y="322.0"/>
    </contour>
  </outline>
</glyph>
<glyph name="H" format="2">
  <advance width="600.0"/>
  <unicode hex="0048"/>
  <outline>
    <contour>
      <point x="184.0" y="-10.0" type="line"/>
      <point x="184.0" y="176.6"/>
      <point x="184.0" y="491.6"/>
      <point x="184.0" y="678.2" type="curve" smooth="yes"/>
      <point x="184.0" y="684.4"/>
      <point x="182.0" y="688.0"/>
      <point x="177.8" y="692.2" type="curve" smooth="yes"/>
      <point x="167.4" y="702.6"/>
      <point x="134.8" y="710.0"/>
      <point x="106.0" y="710.0" type="curve" smooth="yes"/>
      <point x="90.0" y="710.0" type="line"/>
      <point x="90.0" y="604.6"/>
      <point x="90.0" y="372.4"/>
      <point x="90.0" y="267.0" type="curve" smooth="yes"/>
      <point x="90.0" y="187.2"/>
      <point x="90.0" y="105.6"/>
      <point x="90.0" y="25.8" type="curve" smooth="yes"/>
      <point x="90.0" y="19.6"/>
      <point x="92.0" y="16.0"/>
      <point x="96.2" y="11.8" type="curve" smooth="yes"/>
      <point x="111.4" y="-3.4"/>
      <point x="139.2" y="-10.0"/>
      <point x="168.0" y="-10.0" type="curve" smooth="yes"/>
    </contour>
    <contour>
      <point x="514.0" y="-10.0" type="line"/>
      <point x="514.0" y="176.73533834586468"/>
      <point x="514.0" y="491.46466165413534"/>
      <point x="514.0" y="678.2" type="curve" smooth="yes"/>
      <point x="514.0" y="684.4"/>
      <point x="512.0" y="688.0"/>
      <point x="507.8" y="692.2" type="curve" smooth="yes"/>
      <point x="497.4" y="702.6"/>
      <point x="464.8" y="710.0"/>
      <point x="436.0" y="710.0" type="curve" smooth="yes"/>
      <point x="420.0" y="710.0" type="line"/>
      <point x="420.0" y="604.4709677419355"/>
      <point x="420.0" y="372.5290322580645"/>
      <point x="420.0" y="267.0" type="curve" smooth="yes"/>
      <point x="420.0" y="187.2"/>
      <point x="420.0" y="105.6"/>
      <point x="420.0" y="25.8" type="curve" smooth="yes"/>
      <point x="420.0" y="19.6"/>
      <point x="422.0" y="16.0"/>
      <point x="426.2" y="11.8" type="curve" smooth="yes"/>
      <point x="441.4" y="-3.4"/>
      <point x="469.2" y="-10.0"/>
      <point x="498.0" y="-10.0" type="curve" smooth="yes"/>
    </contour>
    <contour>
      <point x="40.0" y="340.0" type="curve"/>
      <point x="40.0" y="324.0" type="line" smooth="yes"/>
      <point x="40.0" y="295.2"/>
      <point x="46.6" y="271.4"/>
      <point x="61.8" y="256.2" type="curve" smooth="yes"/>
      <point x="66.0" y="252.0"/>
      <point x="69.6" y="250.0"/>
      <point x="75.8" y="250.0" type="curve"/>
      <point x="137.86511627906978" y="250.0"/>
      <point x="186.93488372093023" y="250.0"/>
      <point x="249.0" y="250.0" type="curve"/>
      <point x="331.6" y="250.0"/>
      <point x="405.4" y="250.0"/>
      <point x="488.0" y="250.0" type="curve"/>
      <point x="488.0" y="266.0" type="line" smooth="yes"/>
      <point x="488.0" y="285.6"/>
      <point x="476.6" y="315.4"/>
      <point x="458.2" y="333.8" type="curve" smooth="yes"/>
      <point x="454.0" y="338.0"/>
      <point x="450.4" y="340.0"/>
      <point x="444.2" y="340.0" type="curve" smooth="yes"/>
      <point x="301.71782945736436" y="340.0"/>
      <point x="182.48217054263566" y="340.0"/>
    </contour>
  </outline>
</glyph>
<glyph name="I" format="2">
  <advance width="600.0"/>
  <unicode hex="0049"/>
  <outline>
    <contour>
      <point x="62.0" y="700.0" type="curve"/>
      <point x="62.0" y="684.0" type="line" smooth="yes"/>
      <point x="62.0" y="655.2"/>
      <point x="68.6" y="631.4"/>
      <point x="83.8" y="616.2" type="curve" smooth="yes"/>
      <point x="88.0" y="612.0"/>
      <point x="91.6" y="610.0"/>
      <point x="97.8" y="610.0" type="curve"/>
      <point x="155.4" y="610.0"/>
      <point x="191.4" y="610.0"/>
      <point x="249.0" y="610.0" type="curve"/>
      <point x="343.6" y="610.0"/>
      <point x="443.4" y="610.0"/>
      <point x="538.0" y="610.0" type="curve"/>
      <point x="538.0" y="626.0" type="line" smooth="yes"/>
      <point x="538.0" y="645.6"/>
      <point x="526.6" y="675.4"/>
      <point x="508.2" y="693.8" type="curve" smooth="yes"/>
      <point x="504.0" y="698.0"/>
      <point x="500.4" y="700.0"/>
      <point x="494.2" y="700.0" type="curve" smooth="yes"/>
      <point x="344.4" y="700.0"/>
      <point x="211.8" y="700.0"/>
    </contour>
    <contour>
      <point x="345.0" y="28.0" type="line"/>
      <point x="345.0" y="206.2"/>
      <point x="345.0" y="462.0"/>
      <point x="345.0" y="640.2" type="curve" smooth="yes"/>
      <point x="345.0" y="646.4"/>
      <point x="343.0" y="650.0"/>
      <point x="338.8" y="654.2" type="curve" smooth="yes"/>
      <point x="328.4" y="664.6"/>
      <point x="295.8" y="672.0"/>
      <point x="267.0" y="672.0" type="curve" smooth="yes"/>
      <point x="251.0" y="672.0" type="line"/>
      <point x="251.0" y="570.2"/>
      <point x="251.0" y="368.8"/>
      <point x="251.0" y="267.0" type="curve" smooth="yes"/>
      <point x="251.0" y="193.2"/>
      <point x="251.0" y="137.6"/>
      <point x="251.0" y="63.8" type="curve" smooth="yes"/>
      <point x="251.0" y="57.6"/>
      <point x="253.0" y="54.0"/>
      <point x="257.2" y="49.8" type="curve" smooth="yes"/>
      <point x="272.4" y="34.6"/>
      <point x="300.2" y="28.0"/>
      <point x="329.0" y="28.0" type="curve" smooth="yes"/>
    </contour>
    <contour>
      <point x="62.0" y="90.0" type="curve"/>
      <point x="62.0" y="74.0" type="line" smooth="yes"/>
      <point x="62.0" y="45.2"/>
      <point x="68.6" y="21.4"/>
      <point x="83.8" y="6.2" type="curve" smooth="yes"/>
      <point x="88.0" y="2.0"/>
      <point x="91.6" y="0.0"/>
      <point x="97.8" y="0.0" type="curve"/>
      <point x="155.4" y="0.0"/>
      <point x="191.4" y="0.0"/>
      <point x="249.0" y="0.0" type="curve"/>
      <point x="343.6" y="0.0"/>
      <point x="443.4" y="0.0"/>
      <point x="538.0" y="0.0" type="curve"/>
      <point x="538.0" y="16.0" type="line" smooth="yes"/>
      <point x="538.0" y="35.6"/>
      <point x="526.6" y="65.4"/>
      <point x="508.2" y="83.80000000000001" type="curve" smooth="yes"/>
      <point x="504.0" y="88.0"/>
      <point x="500.4" y="90.0"/>
      <point x="494.2" y="90.0" type="curve" smooth="yes"/>
      <point x="344.4" y="90.0"/>
      <point x="211.8" y="90.0"/>
    </contour>
  </outline>
</glyph>
<glyph name="L" format="2">
  <advance width="600.0"/>
  <unicode hex="004C"/>
  <outline>
    <contour>
      <point x="180.0" y="44.2" type="line"/>
      <point x="180.0" y="227.1625"/>
      <point x="180.0" y="495.2375"/>
      <point x="180.0" y="678.2" type="curve" smooth="yes"/>
      <point x="180.0" y="684.4"/>
      <point x="178.0" y="688.0"/>
      <point x="173.8" y="692.2" type="curve" smooth="yes"/>
      <point x="163.4" y="702.6"/>
      <point x="130.8" y="710.0"/>
      <point x="102.0" y="710.0" type="curve" smooth="yes"/>
      <point x="86.0" y="710.0" type="line"/>
      <point x="86.0" y="604.6"/>
      <point x="86.0" y="372.4"/>
      <point x="86.0" y="267.0" type="curve" smooth="yes"/>
      <point x="86.0" y="192.6"/>
      <point x="86.0" y="154.4"/>
      <point x="86.0" y="80.0" type="curve" smooth="yes"/>
      <point x="86.0" y="73.80000000000001"/>
      <point x="88.0" y="70.2"/>
      <point x="92.2" y="66.0" type="curve" smooth="yes"/>
      <point x="107.4" y="50.8"/>
      <point x="135.2" y="44.2"/>
      <point x="164.0" y="44.2" type="curve" smooth="yes"/>
    </contour>
    <contour>
      <point x="86.0" y="90.0" type="curve"/>
      <point x="86.0" y="74.0" type="line" smooth="yes"/>
      <point x="86.0" y="45.2"/>
      <point x="92.6" y="21.4"/>
      <point x="107.8" y="6.2" type="curve" smooth="yes"/>
      <point x="112.0" y="2.0"/>
      <point x="115.6" y="0.0"/>
      <point x="121.8" y="0.0" type="curve"/>
      <point x="172.2" y="0.0"/>
      <point x="174.6" y="0.0"/>
      <point x="225.0" y="0.0" type="curve" smooth="yes"/>
      <point x="321.17922077922077" y="0.0"/>
      <point x="449.82077922077923" y="0.0"/>
      <point x="546.0" y="0.0" type="curve"/>
      <point x="546.0" y="16.0" type="line" smooth="yes"/>
      <point x="546.0" y="35.6"/>
      <point x="534.6" y="65.4"/>
      <point x="516.2" y="83.80000000000001" type="curve" smooth="yes"/>
      <point x="512.0" y="88.0"/>
      <point x="508.4" y="90.0"/>
      <point x="502.2" y="90.0" type="curve" smooth="yes"/>
      <point x="357.29756097560977" y="90.0"/>
      <point x="230.90243902439025" y="90.0"/>
    </contour>
  </outline>
</glyph>
<glyph name="P" format="2">
  <advance width="600.0"/>
  <unicode hex="0050"/>
  <outline>
    <contour>
      <point x="40.0" y="700.0" type="curve"/>
      <point x="40.0" y="684.0" type="line" smooth="yes"/>
      <point x="40.0" y="654.6"/>
      <point x="43.8" y="628.2"/>
      <point x="55.8" y="616.2" type="curve" smooth="yes"/>
      <point x="60.6" y="611.4"/>
      <point x="65.4" y="610.0"/>
      <point x="71.0" y="610.0" type="curve" smooth="yes"/>
      <point x="79.2" y="610.0"/>
      <point x="89.0" y="611.4"/>
      <point x="108.0" y="615.4" type="curve" smooth="yes"/>
      <point x="155.8" y="624.4"/>
      <point x="223.6" y="630.0"/>
      <point x="304.0" y="630.0" type="curve" smooth="yes"/>
      <point x="381.8" y="630.0"/>
      <point x="422.8" y="616.2"/>
      <point x="472.6" y="575.6" type="curve"/>
      <point x="491.4" y="594.4"/>
      <point x="491.6" y="633.6"/>
      <point x="472.2" y="653.0" type="curve" smooth="yes"/>
      <point x="423.0" y="702.2"/>
      <point x="375.2" y="720.0"/>
      <point x="294.8" y="720.0" type="curve" smooth="yes"/>
      <point x="209.6" y="720.0"/>
      <point x="133.8" y="715.2"/>
    </contour>
    <contour>
      <point x="184.0" y="-10.0" type="line"/>
      <point x="184.0" y="176.6"/>
      <point x="184.0" y="459.6"/>
      <point x="184.0" y="646.2" type="curve" smooth="yes"/>
      <point x="184.0" y="652.4"/>
      <point x="182.0" y="656.0"/>
      <point x="177.8" y="660.2" type="curve" smooth="yes"/>
      <point x="167.4" y="670.6"/>
      <point x="134.8" y="678.0"/>
      <point x="106.0" y="678.0" type="curve" smooth="yes"/>
      <point x="90.0" y="678.0" type="line"/>
      <point x="90.0" y="549.0"/>
      <point x="90.0" y="336.0"/>
      <point x="90.0" y="207.0" type="curve" smooth="yes"/>
      <point x="90.0" y="147.2"/>
      <point x="90.0" y="85.6"/>
      <point x="90.0" y="25.8" type="curve" smooth="yes"/>
      <point x="90.0" y="19.6"/>
      <point x="92.0" y="16.0"/>
      <point x="96.2" y="11.8" type="curve" smooth="yes"/>
      <point x="111.4" y="-3.4"/>
      <point x="139.2" y="-10.0"/>
      <point x="168.0" y="-10.0" type="curve" smooth="yes"/>
    </contour>
    <contour>
      <point x="531.0" y="463.2" type="curve" smooth="yes"/>
      <point x="531.0" y="524.0" type="line" smooth="yes"/>
      <point x="531.0" y="568.6"/>
      <point x="512.2" y="614.2"/>
      <point x="472.2" y="653.0" type="curve" smooth="yes"/>
      <point x="446.4" y="677.6"/>
      <point x="402.2" y="677.6"/>
      <point x="378.6" y="656.8" type="curve"/>
      <point x="422.2" y="623.6"/>
      <point x="441.0" y="584.6"/>
      <point x="441.0" y="512.0" type="curve" smooth="yes"/>
      <point x="441.0" y="465.2" type="line" smooth="yes"/>
      <point x="441.0" y="344.4"/>
      <point x="345.2" y="261.0"/>
      <point x="214.4" y="261.0" type="curve" smooth="yes"/>
      <point x="195.8" y="261.0"/>
      <point x="185.4" y="261.8"/>
      <point x="169.6" y="265.0" type="curve"/>
      <point x="164.8" y="259.6"/>
      <point x="161.6" y="251.4"/>
      <point x="161.6" y="242.4" type="curve" smooth="yes"/>
      <point x="161.6" y="210.0"/>
      <point x="207.0" y="169.0"/>
      <point x="246.2" y="169.0" type="curve" smooth="yes"/>
      <point x="398.2" y="169.0"/>
      <point x="531.0" y="284.6"/>
    </contour>
  </outline>
</glyph>
<glyph name="R" format="2">
  <advance width="600.0"/>
  <unicode hex="0052"/>
  <outline>
    <contour>
      <point x="40.0" y="700.0" type="curve"/>
      <point x="40.0" y="684.0" type="line" smooth="yes"/>
      <point x="40.0" y="654.6"/>
      <point x="43.8" y="628.2"/>
      <point x="55.8" y="616.2" type="curve" smooth="yes"/>
      <point x="60.6" y="611.4"/>
      <point x="65.4" y="610.0"/>
      <point x="71.0" y="610.0" type="curve" smooth="yes"/>
      <point x="79.2" y="610.0"/>
      <point x="89.0" y="611.4"/>
      <point x="108.0" y="615.4" type="curve" smooth="yes"/>
      <point x="155.7169043094857" y="624.5159833581714"/>
      <point x="223.47484662576687" y="630.0"/>
      <point x="304.0" y="630.0" type="curve" smooth="yes"/>
      <point x="381.8" y="630.0"/>
      <point x="422.8" y="616.2"/>
      <point x="472.6" y="575.6" type="curve"/>
      <point x="491.4" y="594.4"/>
      <point x="491.6" y="633.6"/>
      <point x="472.2" y="653.0" type="curve" smooth="yes"/>
      <point x="423.0" y="702.2"/>
      <point x="375.2" y="720.0"/>
      <point x="294.8" y="720.0" type="curve" smooth="yes"/>
      <point x="209.7953488372093" y="720.0"/>
      <point x="133.7243558431174" y="714.9533446184328"/>
    </contour>
    <contour>
      <point x="184.0" y="-10.0" type="line"/>
      <point x="184.0" y="176.6"/>
      <point x="184.0" y="459.6"/>
      <point x="184.0" y="646.2" type="curve" smooth="yes"/>
      <point x="184.0" y="652.4"/>
      <point x="182.0" y="656.0"/>
      <point x="177.8" y="660.2" type="curve" smooth="yes"/>
      <point x="167.4" y="670.6"/>
      <point x="134.8" y="678.0"/>
      <point x="106.0" y="678.0" type="curve" smooth="yes"/>
      <point x="90.0" y="678.0" type="line"/>
      <point x="90.0" y="549.0"/>
      <point x="90.0" y="336.0"/>
      <point x="90.0" y="207.0" type="curve" smooth="yes"/>
      <point x="90.0" y="147.2"/>
      <point x="90.0" y="85.6"/>
      <point x="90.0" y="25.8" type="curve" smooth="yes"/>
      <point x="90.0" y="19.6"/>
      <point x="92.0" y="16.0"/>
      <point x="96.2" y="11.8" type="curve" smooth="yes"/>
      <point x="111.4" y="-3.4"/>
      <point x="139.2" y="-10.0"/>
      <point x="168.0" y="-10.0" type="curve" smooth="yes"/>
    </contour>
    <contour>
      <point x="531.0" y="482.2" type="curve" smooth="yes"/>
      <point x="531.0" y="524.0" type="line" smooth="yes"/>
      <point x="531.0" y="568.6"/>
      <point x="512.2" y="614.2"/>
      <point x="472.2" y="653.0" type="curve" smooth="yes"/>
      <point x="446.4" y="677.6"/>
      <point x="402.2" y="677.6"/>
      <point x="378.6" y="656.8" type="curve"/>
      <point x="422.2" y="623.6"/>
      <point x="441.0" y="584.6"/>
      <point x="441.0" y="512.0" type="curve" smooth="yes"/>
      <point x="441.0" y="484.2" type="line" smooth="yes"/>
      <point x="441.0" y="357.0"/>
      <point x="340.4" y="270.0"/>
      <point x="202.4" y="270.0" type="curve" smooth="yes"/>
      <point x="182.6" y="270.0"/>
      <point x="173.8" y="271.6"/>
      <point x="160.0" y="277.2" type="curve"/>
      <point x="152.8" y="270.6"/>
      <point x="149.6" y="261.6"/>
      <point x="149.6" y="251.4" type="curve" smooth="yes"/>
      <point x="149.6" y="220.6"/>
      <point x="187.8" y="190.0"/>
      <point x="223.8" y="190.0" type="curve" smooth="yes"/>
      <point x="389.4" y="190.0"/>
      <point x="531.0" y="311.2"/>
    </contour>
    <contour>
      <point x="332.0" y="277.0" type="line"/>
      <point x="281.2" y="247.4"/>
      <point x="259.2" y="222.4"/>
      <point x="269.6" y="207.0" type="curve" smooth="yes"/>
      <point x="379.4" y="60.0" type="line" smooth="yes"/>
      <point x="421.0" y="2.8000000000000003"/>
      <point x="456.2" y="-20.0"/>
      <point x="502.0" y="-20.0" type="curve" smooth="yes"/>
      <point x="537.2" y="-20.0"/>
      <point x="558.0" y="-3.8"/>
      <point x="558.0" y="24.8" type="curve" smooth="yes"/>
      <point x="558.0" y="90.0" type="line"/>
      <point x="546.0" y="90.0" type="line"/>
      <point x="539.2" y="83.4"/>
      <point x="526.4" y="78.0"/>
      <point x="516.0" y="78.0" type="curve" smooth="yes"/>
      <point x="486.0" y="78.0"/>
      <point x="464.2" y="92.0"/>
      <point x="441.8" y="125.2" type="curve" smooth="yes"/>
    </contour>
  </outline>
</glyph>
<glyph name="S" format="2">
  <advance width="600.0"/>
  <unicode hex="0053"/>
  <outline>
    <contour>
      <point x="378.0" y="309.4" type="curve" smooth="yes"/>
      <point x="289.4" y="341.6" type="line" smooth="yes"/>
      <point x="184.93639087434818" y="379.45378685759067"/>
      <point x="169.8" y="405.4140625"/>
      <point x="169.8" y="444.2" type="curve" smooth="yes"/>
      <point x="169.8" y="463.0"/>
      <point x="172.0" y="486.4"/>
      <point x="179.4" y="515.2" type="curve"/>
      <point x="128.36367688283485" y="509.24292367782056"/>
      <point x="82.0" y="486.0"/>
      <point x="82.0" y="429.2" type="curve" smooth="yes"/>
      <point x="82.0" y="365.2"/>
      <point x="121.0" y="322.8"/>
      <point x="263.4" y="270.0" type="curve" smooth="yes"/>
      <point x="351.8" y="237.2" type="line" smooth="yes"/>
      <point x="455.153609970662" y="198.76144745277693"/>
      <point x="472.395459330254" y="164.67698085450397"/>
      <point x="473.0" y="102.6" type="curve"/>
      <point x="498.79411764705884" y="102.6"/>
      <point x="534.4" y="132.8125"/>
      <point x="534.4" y="163.0" type="curve"/>
      <point x="534.4" y="217.76901408450703"/>
      <point x="492.4139404902335" y="267.8372687623854"/>
    </contour>
    <contour>
      <point x="300.0" y="-20.0" type="curve" smooth="yes"/>
      <point x="444.0" y="-20.0"/>
      <point x="534.4" y="38.6"/>
      <point x="534.4" y="121.6" type="curve" smooth="yes"/>
      <point x="534.4" y="163.0" type="line" smooth="yes"/>
      <point x="534.4" y="176.6"/>
      <point x="509.4" y="183.6"/>
      <point x="479.6" y="183.6" type="curve"/>
      <point x="470.0" y="105.6"/>
      <point x="412.6" y="70.0"/>
      <point x="300.0" y="70.0" type="curve" smooth="yes"/>
      <point x="201.2" y="70.0"/>
      <point x="134.6" y="102.4"/>
      <point x="82.8" y="164.2" type="curve"/>
      <point x="66.2" y="164.2" type="line"/>
      <point x="66.2" y="149.0"/>
      <point x="66.2" y="122.8"/>
      <point x="66.2" y="90.4" type="curve" smooth="yes"/>
      <point x="66.2" y="38.6"/>
      <point x="166.0" y="-20.0"/>
    </contour>
    <contour>
      <point x="390.0" y="720.0" type="curve" smooth="yes"/>
      <point x="257.6" y="720.0"/>
      <point x="82.0" y="570.6"/>
      <point x="82.0" y="465.4" type="curve" smooth="yes"/>
      <point x="82.0" y="429.2" type="line" smooth="yes"/>
      <point x="82.0" y="401.0"/>
      <point x="130.0" y="377.8"/>
      <point x="175.2" y="374.2" type="curve"/>
      <point x="169.8" y="397.8"/>
      <point x="169.8" y="421.0"/>
      <point x="169.8" y="444.2" type="curve" smooth="yes"/>
      <point x="169.8" y="521.8"/>
      <point x="302.0" y="635.6"/>
      <point x="390.8" y="635.6" type="curve" smooth="yes"/>
      <point x="415.0" y="635.6"/>
      <point x="437.0" y="632.8"/>
      <point x="460.8" y="618.8" type="curve"/>
      <point x="492.4" y="636.8"/>
      <point x="501.2" y="661.0"/>
      <point x="477.6" y="684.6" type="curve"/>
      <point x="454.6" y="707.6"/>
      <point x="421.8" y="720.0"/>
    </contour>
    <contour>
      <point x="510.0" y="450.0" type="line"/>
      <point x="510.0" y="602.0" type="line" smooth="yes"/>
      <point x="510.0" y="634.2"/>
      <point x="502.2" y="660.0"/>
      <point x="477.6" y="684.6" type="curve" smooth="yes"/>
      <point x="452.8" y="709.4"/>
      <point x="418.6" y="707.6"/>
      <point x="405.0" y="680.8" type="curve"/>
      <point x="416.8" y="662.4"/>
      <point x="420.0" y="640.2"/>
      <point x="420.0" y="614.6" type="curve" smooth="yes"/>
      <point x="420.0" y="485.8" type="line" smooth="yes"/>
      <point x="420.0" y="480.0"/>
      <point x="421.6" y="476.4"/>
      <point x="426.2" y="471.8" type="curve" smooth="yes"/>
      <point x="441.0" y="457.0"/>
      <point x="464.0" y="450.0"/>
      <point x="494.0" y="450.0" type="curve" smooth="yes"/>
    </contour>
  </outline>
</glyph>
<glyph name="T" format="2">
  <advance width="600.0"/>
  <unicode hex="0054"/>
  <outline>
    <contour>
      <point x="347.0" y="-12.0" type="line"/>
      <point x="347.0" y="170.35384615384618"/>
      <point x="347.0" y="457.84615384615387"/>
      <point x="347.0" y="640.2" type="curve" smooth="yes"/>
      <point x="347.0" y="646.4"/>
      <point x="345.0" y="650.0"/>
      <point x="340.8" y="654.2" type="curve" smooth="yes"/>
      <point x="330.4" y="664.6"/>
      <point x="297.8" y="672.0"/>
      <point x="269.0" y="672.0" type="curve" smooth="yes"/>
      <point x="253.0" y="672.0" type="line"/>
      <point x="253.0" y="570.2"/>
      <point x="253.0" y="348.8"/>
      <point x="253.0" y="247.0" type="curve" smooth="yes"/>
      <point x="253.0" y="167.24225352112677"/>
      <point x="253.0" y="103.55774647887324"/>
      <point x="253.0" y="23.8" type="curve" smooth="yes"/>
      <point x="253.0" y="17.6"/>
      <point x="255.0" y="14.0"/>
      <point x="259.2" y="9.8" type="curve" smooth="yes"/>
      <point x="274.4" y="-5.4"/>
      <point x="302.2" y="-12.0"/>
      <point x="331.0" y="-12.0" type="curve" smooth="yes"/>
    </contour>
    <contour>
      <point x="42.0" y="700.0" type="curve"/>
      <point x="42.0" y="684.0" type="line" smooth="yes"/>
      <point x="42.0" y="655.2"/>
      <point x="48.6" y="631.4"/>
      <point x="63.8" y="616.2" type="curve" smooth="yes"/>
      <point x="68.0" y="612.0"/>
      <point x="71.6" y="610.0"/>
      <point x="77.8" y="610.0" type="curve"/>
      <point x="139.86511627906978" y="610.0"/>
      <point x="162.93488372093023" y="610.0"/>
      <point x="225.0" y="610.0" type="curve"/>
      <point x="324.44528301886794" y="610.0"/>
      <point x="458.55471698113206" y="610.0"/>
      <point x="558.0" y="610.0" type="curve"/>
      <point x="558.0" y="626.0" type="line" smooth="yes"/>
      <point x="558.0" y="645.6"/>
      <point x="546.6" y="675.4"/>
      <point x="528.2" y="693.8" type="curve" smooth="yes"/>
      <point x="524.0" y="698.0"/>
      <point x="520.4" y="700.0"/>
      <point x="514.2" y="700.0" type="curve" smooth="yes"/>
      <point x="354.89978118161923" y="700.0"/>
      <point x="201.1913043478261" y="700.0"/>
    </contour>
  </outline>
</glyph>
<glyph name="a" format="2">
  <advance width="600.0"/>
  <unicode hex="0061"/>
  <outline>
    <contour>
      <point x="245.6" y="540.0" type="curve" smooth="yes"/>
      <point x="182.0" y="540.0"/>
      <point x="115.12728859537923" y="527.1272885953792"/>
      <point x="101.8" y="513.8" type="curve" smooth="yes"/>
      <point x="95.0" y="507.0"/>
      <point x="93.2" y="500.2"/>
      <point x="93.2" y="490.6" type="curve"/>
      <point x="93.2" y="429.8" type="line"/>
      <point x="107.2" y="429.8" type="line"/>
      <point x="153.0" y="444.8"/>
      <point x="220.2516129032258" y="454.0"/>
      <point x="275.6" y="454.0" type="curve" smooth="yes"/>
      <point x="348.4727272727273" y="454.0"/>
      <point x="384.4" y="446.6"/>
      <point x="441.6" y="424.2" type="curve"/>
      <point x="456.0" y="444.6"/>
      <point x="457.9789327688082" y="465.6210672311918"/>
      <point x="423.6" y="499.6" type="curve"/>
      <point x="392.78529027520506" y="529.845012755098"/>
      <point x="338.5333333333333" y="540.0"/>
    </contour>
    <contour>
      <point x="373.6" y="497.2" type="curve"/>
      <point x="397.6" y="423.0"/>
      <point x="396.9742544515214" y="376.66354859306335"/>
      <point x="393.0" y="308.8" type="curve" smooth="yes"/>
      <point x="393.0" y="232.4"/>
      <point x="393.0" y="183.2888888888889"/>
      <point x="393.0" y="122.4" type="curve" smooth="yes"/>
      <point x="393.0" y="75.0"/>
      <point x="400.5030999194168" y="54.696900080583205"/>
      <point x="424.2" y="31.0" type="curve"/>
      <point x="444.4" y="10.8"/>
      <point x="495.6" y="13.600000000000001"/>
      <point x="503.4" y="35.0" type="curve"/>
      <point x="488.8" y="57.6"/>
      <point x="485.0" y="76.0"/>
      <point x="485.0" y="108.0" type="curve" smooth="yes"/>
      <point x="485.0" y="192.79999999999998"/>
      <point x="485.0" y="237.37777777777777"/>
      <point x="485.0" y="349.6" type="curve" smooth="yes"/>
      <point x="485.0" y="406.4555555555555"/>
      <point x="467.1384200311364" y="454.8615799688636"/>
      <point x="423.6" y="499.6" type="curve"/>
      <point x="409.7547184670938" y="513.8452815329063"/>
      <point x="385.6" y="508.4"/>
    </contour>
    <contour>
      <point x="424.6" y="262.4" type="curve" smooth="yes"/>
      <point x="405.7687696633671" y="281.2312303366329"/>
      <point x="340.21632653061226" y="293.0"/>
      <point x="249.0" y="293.0" type="curve" smooth="yes"/>
      <point x="182.48571428571427" y="293.0"/>
      <point x="145.85478003189272" y="281.6547800318927"/>
      <point x="116.6" y="252.4" type="curve" smooth="yes"/>
      <point x="97.8" y="233.6"/>
      <point x="93.6" y="207.2"/>
      <point x="102.4" y="191.0" type="curve"/>
      <point x="140.6960218143565" y="218.6850136339728"/>
      <point x="175.9258064516129" y="225.0"/>
      <point x="232.0" y="225.0" type="curve" smooth="yes"/>
      <point x="300.15135135135137" y="225.0"/>
      <point x="382.5731175619353" y="223.7718588429862"/>
      <point x="440.4" y="215.4" type="curve"/>
      <point x="440.2" y="236.0"/>
      <point x="434.95676755955407" y="252.04323244044593"/>
    </contour>
    <contour>
      <point x="155.0" y="132.0" type="curve" smooth="yes"/>
      <point x="155.0" y="164.6" type="line" smooth="yes"/>
      <point x="155.0" y="227.2"/>
      <point x="161.6" y="242.6"/>
      <point x="192.6" y="269.8" type="curve"/>
      <point x="164.2" y="278.4"/>
      <point x="132.0" y="267.8"/>
      <point x="116.6" y="252.4" type="curve" smooth="yes"/>
      <point x="75.4" y="211.2"/>
      <point x="65.0" y="190.2"/>
      <point x="65.0" y="152.0" type="curve" smooth="yes"/>
      <point x="65.0" y="121.0" type="line" smooth="yes"/>
      <point x="65.0" y="26.8"/>
      <point x="110.0" y="-20.0"/>
      <point x="193.4" y="-20.0" type="curve" smooth="yes"/>
      <point x="288.4" y="-20.0"/>
      <point x="362.2" y="27.8"/>
      <point x="404.0" y="97.0" type="curve" smooth="yes"/>
      <point x="414.0" y="113.0"/>
      <point x="418.0" y="128.0"/>
      <point x="418.0" y="159.6" type="curve"/>
      <point x="355.8" y="89.2"/>
      <point x="297.4" y="66.6"/>
      <point x="232.0" y="66.6" type="curve" smooth="yes"/>
      <point x="210.0" y="66.6" type="line" smooth="yes"/>
      <point x="172.0" y="66.6"/>
      <point x="155.0" y="84.60000000000001"/>
    </contour>
    <contour>
      <point x="505.8" y="-10.0" type="curve" smooth="yes"/>
      <point x="545.3354838709678" y="-10.0"/>
      <point x="563.0" y="5.0"/>
      <point x="563.0" y="38.4" type="curve"/>
      <point x="563.0" y="90.0" type="line"/>
      <point x="547.0" y="90.0" type="line"/>
      <point x="534.6384099383754" y="88.04258767334628"/>
      <point x="524.2734693877551" y="84.0"/>
      <point x="507.6" y="84.0" type="curve" smooth="yes"/>
      <point x="483.68695652173915" y="84.0"/>
      <point x="458.29462739974656" y="85.95268630012671"/>
      <point x="428.2" y="91.80000000000001" type="curve"/>
      <point x="414.4" y="78.0"/>
      <point x="411.2" y="44.0"/>
      <point x="424.2" y="31.0" type="curve"/>
      <point x="446.3229848415631" y="9.428656932834247"/>
      <point x="476.85" y="-10.0"/>
    </contour>
  </outline>
</glyph>
<glyph name="b" format="2">
  <advance width="600.0"/>
  <unicode hex="0062"/>
  <outline>
    <contour>
      <point x="180.0" y="-10.0" type="line"/>
      <point x="180.0" y="204.2"/>
      <point x="180.0" y="528.0"/>
      <point x="180.0" y="722.2" type="curve" smooth="yes"/>
      <point x="180.0" y="728.4"/>
      <point x="178.0" y="732.0"/>
      <point x="173.8" y="736.2" type="curve" smooth="yes"/>
      <point x="163.4" y="746.6"/>
      <point x="130.8" y="754.0"/>
      <point x="102.0" y="754.0" type="curve" smooth="yes"/>
      <point x="86.0" y="754.0" type="line"/>
      <point x="86.0" y="613.2"/>
      <point x="86.0" y="521.8"/>
      <point x="86.0" y="381.0" type="curve" smooth="yes"/>
      <point x="86.0" y="303.0"/>
      <point x="86.0" y="103.80000000000001"/>
      <point x="86.0" y="25.8" type="curve" smooth="yes"/>
      <point x="86.0" y="19.6"/>
      <point x="88.0" y="16.0"/>
      <point x="92.2" y="11.8" type="curve" smooth="yes"/>
      <point x="107.4" y="-3.4"/>
      <point x="135.2" y="-10.0"/>
      <point x="164.0" y="-10.0" type="curve" smooth="yes"/>
    </contour>
    <contour>
      <point x="381.6" y="536.0" type="curve" smooth="yes"/>
      <point x="306.4327031170159" y="536.0"/>
      <point x="225.40637840153215" y="481.0911501997396"/>
      <point x="172.0" y="412.0" type="curve" smooth="yes"/>
      <point x="150.8" y="385.4"/>
      <point x="144.6" y="365.6"/>
      <point x="145.8" y="324.6" type="curve"/>
      <point x="240.2097892316475" y="415.8674085516571"/>
      <point x="298.8207923248697" y="442.0"/>
      <point x="377.0" y="442.0" type="curve" smooth="yes"/>
      <point x="437.0" y="442.0"/>
      <point x="479.0" y="390.8"/>
      <point x="498.4" y="312.4" type="curve"/>
      <point x="532.0" y="314.8"/>
      <point x="545.0" y="330.2"/>
      <point x="545.0" y="343.6" type="curve" smooth="yes"/>
      <point x="545.0" y="448.6"/>
      <point x="463.0" y="536.0"/>
    </contour>
    <contour>
      <point x="324.2" y="-20.0" type="curve" smooth="yes"/>
      <point x="469.1583486238532" y="-20.0"/>
      <point x="545.0" y="110.8"/>
      <point x="545.0" y="307.0" type="curve" smooth="yes"/>
      <point x="545.0" y="343.6" type="line" smooth="yes"/>
      <point x="545.0" y="390.8"/>
      <point x="505.2" y="460.8"/>
      <point x="463.6" y="460.8" type="curve"/>
      <point x="438.6" y="460.8"/>
      <point x="420.4" y="455.0"/>
      <point x="419.2" y="438.6" type="curve"/>
      <point x="438.6" y="405.4"/>
      <point x="449.0" y="379.2"/>
      <point x="449.0" y="329.6" type="curve" smooth="yes"/>
      <point x="449.0" y="307.0" type="line" smooth="yes"/>
      <point x="449.0" y="155.4"/>
      <point x="392.8481658692185" y="68.0"/>
      <point x="292.4" y="68.0" type="curve" smooth="yes"/>
      <point x="242.0" y="68.0"/>
      <point x="208.81019108280253" y="84.19999999999999"/>
      <point x="169.0" y="120.8" type="curve"/>
      <point x="163.8" y="119.2"/>
      <point x="161.6" y="115.0"/>
      <point x="161.6" y="108.2" type="curve"/>
      <point x="161.6" y="60.8"/>
      <point x="242.2" y="-20.0"/>
    </contour>
  </outline>
</glyph>
<glyph name="c" format="2">
  <advance width="600.0"/>
  <unicode hex="0063"/>
  <outline>
    <contour>
      <point x="360.2" y="540.0" type="curve" smooth="yes"/>
      <point x="200.29820359281436" y="540.0"/>
      <point x="65.0" y="419.8"/>
      <point x="65.0" y="241.0" type="curve" smooth="yes"/>
      <point x="65.0" y="211.0" type="line" smooth="yes"/>
      <point x="65.0" y="149.9"/>
      <point x="88.16376294573864" y="88.83623705426136"/>
      <point x="130.0" y="47.0" type="curve" smooth="yes"/>
      <point x="147.4" y="29.6"/>
      <point x="192.0" y="20.799999999999997"/>
      <point x="208.8" y="38.8" type="curve"/>
      <point x="180.34160091866187" y="85.0172690211062"/>
      <point x="153.8" y="142.07384615384615"/>
      <point x="153.8" y="198.0" type="curve" smooth="yes"/>
      <point x="153.8" y="228.2" type="line" smooth="yes"/>
      <point x="153.8" y="346.6"/>
      <point x="233.25714285714287" y="450.0"/>
      <point x="356.6" y="450.0" type="curve" smooth="yes"/>
      <point x="413.69473684210527" y="450.0"/>
      <point x="454.8" y="433.2"/>
      <point x="482.2" y="413.4" type="curve"/>
      <point x="505.8" y="428.0"/>
      <point x="517.8" y="453.4"/>
      <point x="484.6" y="486.6" type="curve"/>
      <point x="443.2" y="528.0"/>
      <point x="419.4" y="540.0"/>
    </contour>
    <contour>
      <point x="127.0" y="123.4" type="curve"/>
      <point x="111.4" y="109.0"/>
      <point x="103.0" y="74.0"/>
      <point x="130.0" y="47.0" type="curve" smooth="yes"/>
      <point x="172.17680651245968" y="4.218282195527557"/>
      <point x="209.6488888888889" y="-20.0"/>
      <point x="277.0" y="-20.0" type="curve" smooth="yes"/>
      <point x="319.6" y="-20.0" type="line" smooth="yes"/>
      <point x="418.2" y="-20.0"/>
      <point x="479.0" y="2.0"/>
      <point x="510.4" y="33.4" type="curve" smooth="yes"/>
      <point x="521.2" y="44.2"/>
      <point x="523.8" y="53.6"/>
      <point x="523.8" y="67.6" type="curve" smooth="yes"/>
      <point x="523.8" y="88.8"/>
      <point x="523.8" y="110.8"/>
      <point x="523.8" y="130.0" type="curve"/>
      <point x="507.8" y="130.0" type="line"/>
      <point x="461.8" y="82.2"/>
      <point x="396.6" y="70.0"/>
      <point x="300.0" y="70.0" type="curve" smooth="yes"/>
      <point x="218.64011627906976" y="70.0"/>
      <point x="172.629593044708" y="83.16973438609406"/>
    </contour>
    <contour>
      <point x="525.0" y="294.0" type="line"/>
      <point x="525.0" y="399.2" type="line" smooth="yes"/>
      <point x="525.0" y="432.8"/>
      <point x="514.2" y="457.0"/>
      <point x="484.6" y="486.6" type="curve" smooth="yes"/>
      <point x="460.4" y="510.8"/>
      <point x="424.0" y="505.4"/>
      <point x="407.4" y="488.2" type="curve"/>
      <point x="424.6" y="471.0"/>
      <point x="435.0" y="433.8"/>
      <point x="435.0" y="404.0" type="curve" smooth="yes"/>
      <point x="435.0" y="329.8" type="line" smooth="yes"/>
      <point x="435.0" y="324.0"/>
      <point x="436.6" y="320.4"/>
      <point x="441.2" y="315.8" type="curve" smooth="yes"/>
      <point x="456.0" y="301.0"/>
      <point x="479.0" y="294.0"/>
      <point x="509.0" y="294.0" type="curve" smooth="yes"/>
    </contour>
  </outline>
</glyph>
<glyph name="d" format="2">
  <advance width="600.0"/>
  <unicode hex="0064"/>
  <outline>
    <contour>
      <point x="286.0" y="540.0" type="curve" smooth="yes"/>
      <point x="151.89333333333335" y="540.0"/>
      <point x="61.0" y="421.2"/>
      <point x="61.0" y="219.0" type="curve" smooth="yes"/>
      <point x="61.0" y="184.4" type="line" smooth="yes"/>
      <point x="61.0" y="138.2"/>
      <point x="96.2" y="69.8"/>
      <point x="143.0" y="69.8" type="curve"/>
      <point x="160.4" y="69.8"/>
      <point x="173.0" y="74.8"/>
      <point x="174.2" y="89.2" type="curve"/>
      <point x="163.2" y="115.2"/>
      <point x="157.0" y="149.4"/>
      <point x="157.0" y="206.4" type="curve" smooth="yes"/>
      <point x="157.0" y="225.0" type="line" smooth="yes"/>
      <point x="157.0" y="363.4"/>
      <point x="206.42285714285714" y="456.0"/>
      <point x="308.0" y="456.0" type="curve" smooth="yes"/>
      <point x="362.0" y="456.0"/>
      <point x="395.6" y="440.4"/>
      <point x="437.0" y="421.2" type="curve"/>
      <point x="445.0" y="423.2"/>
      <point x="446.4" y="438.6"/>
      <point x="441.6" y="449.0" type="curve"/>
      <point x="430.0" y="486.8"/>
      <point x="358.6" y="540.0"/>
    </contour>
    <contour>
      <point x="514.0" y="-10.0" type="line"/>
      <point x="514.0" y="205.4"/>
      <point x="514.0" y="532.8"/>
      <point x="514.0" y="728.2" type="curve" smooth="yes"/>
      <point x="514.0" y="734.4"/>
      <point x="512.0" y="738.0"/>
      <point x="507.8" y="742.2" type="curve" smooth="yes"/>
      <point x="497.4" y="752.6"/>
      <point x="464.8" y="760.0"/>
      <point x="436.0" y="760.0" type="curve" smooth="yes"/>
      <point x="420.0" y="760.0" type="line"/>
      <point x="420.0" y="625.4"/>
      <point x="420.0" y="539.6"/>
      <point x="420.0" y="405.0" type="curve" smooth="yes"/>
      <point x="420.0" y="319.0"/>
      <point x="420.0" y="111.80000000000001"/>
      <point x="420.0" y="25.8" type="curve" smooth="yes"/>
      <point x="420.0" y="19.6"/>
      <point x="422.0" y="16.0"/>
      <point x="426.2" y="11.8" type="curve" smooth="yes"/>
      <point x="441.4" y="-3.4"/>
      <point x="469.2" y="-10.0"/>
      <point x="498.0" y="-10.0" type="curve" smooth="yes"/>
    </contour>
    <contour>
      <point x="218.4" y="-16.0" type="curve" smooth="yes"/>
      <point x="291.4620337250894" y="-16.0"/>
      <point x="377.44082673439704" y="42.98037349271441"/>
      <point x="428.0" y="108.0" type="curve" smooth="yes"/>
      <point x="449.6" y="134.6"/>
      <point x="455.4" y="154.4"/>
      <point x="454.2" y="195.4" type="curve"/>
      <point x="359.7902107683525" y="104.13259144834291"/>
      <point x="301.1792076751303" y="78.0"/>
      <point x="223.0" y="78.0" type="curve" smooth="yes"/>
      <point x="156.2" y="78.0"/>
      <point x="128.2" y="146.0"/>
      <point x="102.0" y="230.0" type="curve"/>
      <point x="71.4" y="227.6"/>
      <point x="61.0" y="205.0"/>
      <point x="61.0" y="184.4" type="curve" smooth="yes"/>
      <point x="61.0" y="81.8"/>
      <point x="123.0" y="-16.0"/>
    </contour>
  </outline>
</glyph>
<glyph name="e" format="2">
  <advance width="600.0"/>
  <unicode hex="0065"/>
  <outline>
    <contour>
      <point x="350.6" y="540.0" type="curve"/>
      <point x="185.2" y="540.0"/>
      <point x="65.0" y="455.1061224489796"/>
      <point x="65.0" y="267.0" type="curve" smooth="yes"/>
      <point x="65.0" y="207.0" type="line"/>
      <point x="65.0" y="140.12307692307692"/>
      <point x="89.13722752896747" y="89.06277247103253"/>
      <point x="127.6" y="50.6" type="curve"/>
      <point x="145.31862359393583" y="32.88137640606417"/>
      <point x="177.6726442280987" y="29.956724756611052"/>
      <point x="201.8" y="46.4" type="curve"/>
      <point x="171.0" y="99.0"/>
      <point x="153.8" y="143.6"/>
      <point x="153.8" y="198.4" type="curve" smooth="yes"/>
      <point x="153.8" y="260.6" type="line" smooth="yes"/>
      <point x="153.8" y="395.6307692307692"/>
      <point x="222.8" y="450.0"/>
      <point x="342.6" y="450.0" type="curve" smooth="yes"/>
      <point x="401.70428571428573" y="450.0"/>
      <point x="443.1852363063134" y="439.2433068348139"/>
      <point x="467.2" y="400.0" type="curve"/>
      <point x="486.2" y="400.0"/>
      <point x="496.2" y="414.0"/>
      <point x="496.2" y="429.8" type="curve"/>
      <point x="496.2" y="492.6965517241379"/>
      <point x="416.39622641509436" y="540.0"/>
    </contour>
    <contour>
      <point x="356.6" y="215.0" type="line" smooth="yes"/>
      <point x="486.81967213114757" y="215.0"/>
      <point x="535.0" y="282.8827586206897"/>
      <point x="535.0" y="356.0" type="curve" smooth="yes"/>
      <point x="535.0" y="391.4" type="line" smooth="yes"/>
      <point x="535.0" y="463.0"/>
      <point x="455.6" y="540.0"/>
      <point x="365.0" y="540.0" type="curve" smooth="yes"/>
      <point x="350.6" y="540.0" type="line" smooth="yes"/>
      <point x="321.0" y="540.0"/>
      <point x="301.4" y="519.0"/>
      <point x="301.4" y="488.0" type="curve"/>
      <point x="378.4" y="488.0"/>
      <point x="445.0" y="457.61121495327103"/>
      <point x="445.0" y="388.2" type="curve" smooth="yes"/>
      <point x="445.0" y="356.2" type="line" smooth="yes"/>
      <point x="445.0" y="302.9647058823529"/>
      <point x="415.2492753623188" y="285.0"/>
      <point x="348.4" y="285.0" type="curve" smooth="yes"/>
      <point x="257.8023668639053" y="285.0"/>
      <point x="211.4094674556213" y="285.0"/>
      <point x="137.4" y="285.0" type="curve"/>
      <point x="136.2" y="280.0"/>
      <point x="136.4" y="275.0"/>
      <point x="138.2" y="270.2" type="curve"/>
      <point x="146.0" y="246.4"/>
      <point x="198.6" y="215.0"/>
      <point x="258.8" y="215.0" type="curve" smooth="yes"/>
    </contour>
    <contour>
      <point x="111.4" y="160.0" type="curve"/>
      <point x="86.2" y="134.8"/>
      <point x="96.4" y="81.8"/>
      <point x="127.6" y="50.6" type="curve"/>
      <point x="172.6" y="5.0"/>
      <point x="219.2" y="-20.0"/>
      <point x="291.4" y="-20.0" type="curve" smooth="yes"/>
      <point x="316.6" y="-20.0" type="line" smooth="yes"/>
      <point x="412.2" y="-20.0"/>
      <point x="483.8" y="5.0"/>
      <point x="510.4" y="35.2" type="curve" smooth="yes"/>
      <point x="520.6" y="46.6"/>
      <point x="523.8" y="56.6"/>
      <point x="523.8" y="70.6" type="curve"/>
      <point x="523.8" y="85.8"/>
      <point x="523.8" y="116.8"/>
      <point x="523.8" y="130.0" type="curve"/>
      <point x="507.8" y="130.0" type="line"/>
      <point x="461.8" y="82.2"/>
      <point x="396.6" y="70.0"/>
      <point x="300.0" y="70.0" type="curve" smooth="yes"/>
      <point x="212.8" y="70.0"/>
      <point x="157.0" y="92.2"/>
    </contour>
  </outline>
</glyph>
<glyph name="f" format="2">
  <advance width="600.0"/>
  <unicode hex="0066"/>
  <outline>
    <contour>
      <point x="249.6" y="628.2" type="curve"/>
      <point x="288.79874935331117" y="663.9959207576508"/>
      <point x="330.7868131868132" y="676.0"/>
      <point x="400.0" y="676.0" type="curve" smooth="yes"/>
      <point x="459.4" y="676.0"/>
      <point x="511.0" y="661.8"/>
      <point x="544.0" y="645.0" type="curve"/>
      <point x="560.0" y="645.0" type="line"/>
      <point x="560.0" y="664.6" type="line"/>
      <point x="560.0" y="695.2020512141864"/>
      <point x="553.0276640528866" y="717.1668031365361"/>
      <point x="544.0" y="727.4" type="curve" smooth="yes"/>
      <point x="531.2078735161957" y="741.434821257983"/>
      <point x="476.612987012987" y="760.0"/>
      <point x="423.0" y="760.0" type="curve"/>
      <point x="409.0" y="760.0" type="line"/>
      <point x="341.5101623740201" y="760.0"/>
      <point x="291.58949350139466" y="750.9894935013947"/>
      <point x="243.2" y="702.6" type="curve" smooth="yes"/>
      <point x="224.37189467963256" y="683.7718946796326"/>
      <point x="225.83319120640851" y="648.4197750512841"/>
    </contour>
    <contour>
      <point x="280.0" y="-10.0" type="line"/>
      <point x="280.0" y="178.67301587301586"/>
      <point x="280.0" y="339.9256613756613"/>
      <point x="280.0" y="500.0" type="curve" smooth="yes"/>
      <point x="273.7803233455007" y="593.1434641088719"/>
      <point x="268.2" y="643.1694915254237"/>
      <point x="303.0" y="710.4" type="curve"/>
      <point x="284.4380663730883" y="722.0956025887418"/>
      <point x="258.5034089800685" y="717.9034089800685"/>
      <point x="243.2" y="702.6" type="curve" smooth="yes"/>
      <point x="205.8" y="665.2"/>
      <point x="190.0" y="629.7947368421053"/>
      <point x="190.0" y="563.2" type="curve"/>
      <point x="190.0" y="419.9504950495049"/>
      <point x="190.0" y="222.87524752475247"/>
      <point x="190.0" y="25.8" type="curve"/>
      <point x="190.0" y="19.6"/>
      <point x="192.0" y="16.0"/>
      <point x="196.2" y="11.8" type="curve" smooth="yes"/>
      <point x="211.4" y="-3.4"/>
      <point x="235.2" y="-10.0"/>
      <point x="264.0" y="-10.0" type="curve" smooth="yes"/>
    </contour>
    <contour>
      <point x="40.0" y="470.0" type="curve"/>
      <point x="40.0" y="454.0" type="line" smooth="yes"/>
      <point x="40.0" y="424.0"/>
      <point x="47.0" y="401.0"/>
      <point x="61.8" y="386.2" type="curve" smooth="yes"/>
      <point x="66.4" y="381.6"/>
      <point x="70.0" y="380.0"/>
      <point x="75.8" y="380.0" type="curve"/>
      <point x="134.3655172413793" y="380.0"/>
      <point x="200.4344827586207" y="380.0"/>
      <point x="259.0" y="380.0" type="curve"/>
      <point x="323.38461538461536" y="380.0"/>
      <point x="461.00000000000006" y="380.0"/>
      <point x="520.0" y="380.0" type="curve"/>
      <point x="520.0" y="396.0" type="line" smooth="yes"/>
      <point x="520.0" y="426.4"/>
      <point x="513.0" y="449.0"/>
      <point x="498.2" y="463.8" type="curve" smooth="yes"/>
      <point x="493.6" y="468.4"/>
      <point x="490.0" y="470.0"/>
      <point x="484.2" y="470.0" type="curve" smooth="yes"/>
      <point x="368.2516853932584" y="470.0"/>
      <point x="156.37078651685394" y="470.0"/>
    </contour>
  </outline>
</glyph>
<glyph name="g" format="2">
  <advance width="600.0"/>
  <unicode hex="0067"/>
  <outline>
    <contour>
      <point x="315.0" y="459.0" type="curve" smooth="yes"/>
      <point x="370.37276672153223" y="459.0"/>
      <point x="422.66254135614577" y="446.89370175116323"/>
      <point x="452.0" y="424.0" type="curve"/>
      <point x="475.0" y="454.6"/>
      <point x="475.0" y="486.0"/>
      <point x="459.2" y="501.8" type="curve" smooth="yes"/>
      <point x="431.04769221806606" y="529.952307781934"/>
      <point x="361.57543859649127" y="540.0"/>
      <point x="307.0" y="540.0" type="curve" smooth="yes"/>
      <point x="176.0" y="540.0"/>
      <point x="72.0" y="466.9666666666667"/>
      <point x="72.0" y="354.0" type="curve" smooth="yes"/>
      <point x="72.0" y="326.0" type="line" smooth="yes"/>
      <point x="72.0" y="277.37912742648473"/>
      <point x="89.61364076587486" y="244.18635923412512"/>
      <point x="129.6" y="204.2" type="curve" smooth="yes"/>
      <point x="140.4" y="193.4"/>
      <point x="194.8" y="192.0"/>
      <point x="202.4" y="201.4" type="curve"/>
      <point x="173.24000977724899" y="238.6709321864302"/>
      <point x="158.0" y="263.7958220358354"/>
      <point x="158.0" y="311.2" type="curve" smooth="yes"/>
      <point x="158.0" y="331.6" type="line" smooth="yes"/>
      <point x="158.0" y="421.3607843137255"/>
      <point x="215.71404958677687" y="459.0"/>
    </contour>
    <contour>
      <point x="297.0" y="231.0" type="curve" smooth="yes"/>
      <point x="232.0" y="231.0"/>
      <point x="178.0" y="237.2"/>
      <point x="125.6" y="269.6" type="curve"/>
      <point x="113.4" y="246.0"/>
      <point x="110.0" y="224.2"/>
      <point x="129.6" y="204.2" type="curve" smooth="yes"/>
      <point x="177.0" y="156.8"/>
      <point x="229.6" y="149.0"/>
      <point x="309.0" y="149.0" type="curve" smooth="yes"/>
      <point x="442.0" y="149.0"/>
      <point x="528.0" y="231.71"/>
      <point x="528.0" y="341.0" type="curve" smooth="yes"/>
      <point x="528.0" y="369.0" type="line" smooth="yes"/>
      <point x="528.0" y="414.10879284649775"/>
      <point x="513.3598307322753" y="447.64016926772473"/>
      <point x="459.2" y="501.8" type="curve" smooth="yes"/>
      <point x="443.2" y="517.8"/>
      <point x="399.4" y="514.8"/>
      <point x="379.4" y="497.2" type="curve"/>
      <point x="423.732024127579" y="460.92834389561716"/>
      <point x="442.0" y="429.1766450417053"/>
      <point x="442.0" y="372.0" type="curve" smooth="yes"/>
      <point x="442.0" y="347.6" type="line" smooth="yes"/>
      <point x="442.0" y="277.54425531914893"/>
      <point x="385.2" y="231.0"/>
    </contour>
    <contour>
      <point x="180.0" y="61.2" type="curve" smooth="yes"/>
      <point x="180.0" y="48.2" type="line" smooth="yes"/>
      <point x="180.0" y="-7.555555555555557"/>
      <point x="222.2" y="-39.0"/>
      <point x="295.0" y="-39.0" type="curve" smooth="yes"/>
      <point x="420.0" y="-39.0" type="line" smooth="yes"/>
      <point x="450.31111111111113" y="-39.0"/>
      <point x="470.8" y="-64.05454545454546"/>
      <point x="470.8" y="-96.8" type="curve" smooth="yes"/>
      <point x="470.8" y="-123.6" type="line" smooth="yes"/>
      <point x="470.8" y="-160.2"/>
      <point x="466.6" y="-175.0"/>
      <point x="451.6" y="-201.0" type="curve"/>
      <point x="465.2" y="-205.8"/>
      <point x="502.2" y="-201.0"/>
      <point x="512.6" y="-190.6" type="curve" smooth="yes"/>
      <point x="546.4" y="-156.8"/>
      <point x="560.0" y="-131.6"/>
      <point x="560.0" y="-90.0" type="curve" smooth="yes"/>
      <point x="560.0" y="-75.0" type="line" smooth="yes"/>
      <point x="560.0" y="-7.3947484554280685"/>
      <point x="505.4758000719166" y="45.0"/>
      <point x="435.0" y="45.0" type="curve" smooth="yes"/>
      <point x="293.8" y="45.0" type="line" smooth="yes"/>
      <point x="272.4" y="45.0"/>
      <point x="266.0" y="51.400000000000006"/>
      <point x="266.0" y="72.8" type="curve" smooth="yes"/>
      <point x="266.0" y="97.8" type="line" smooth="yes"/>
      <point x="266.0" y="121.97391304347826"/>
      <point x="275.6653342439874" y="153.98414885643464"/>
      <point x="287.0" y="169.2" type="curve"/>
      <point x="287.0" y="175.8"/>
      <point x="284.6" y="179.8"/>
      <point x="278.0" y="182.2" type="curve" smooth="yes"/>
      <point x="245.24" y="182.2"/>
      <point x="180.0" y="112.52519815347094"/>
    </contour>
    <contour>
      <point x="529.0" y="-126.2" type="curve"/>
      <point x="457.0" y="-175.8"/>
      <point x="410.2" y="-180.0"/>
      <point x="330.2" y="-180.0" type="curve"/>
      <point x="242.0" y="-180.0" type="line"/>
      <point x="167.37895122845617" y="-180.0"/>
      <point x="129.8" y="-158.64705882352942"/>
      <point x="129.8" y="-113.0" type="curve" smooth="yes"/>
      <point x="129.8" y="-88.0" type="line" smooth="yes"/>
      <point x="129.8" y="-56.019417475728154"/>
      <point x="154.6" y="-20.8"/>
      <point x="228.6" y="3.3999999999999986" type="curve"/>
      <point x="228.6" y="16.4"/>
      <point x="220.8" y="28.4"/>
      <point x="208.2" y="28.4" type="curve"/>
      <point x="109.46197183098592" y="28.4"/>
      <point x="40.6" y="-29.394736842105267"/>
      <point x="40.6" y="-107.6" type="curve" smooth="yes"/>
      <point x="40.6" y="-127.0" type="line" smooth="yes"/>
      <point x="40.6" y="-195.8"/>
      <point x="115.45702854094425" y="-250.0"/>
      <point x="221.0" y="-250.0" type="curve"/>
      <point x="286.0" y="-250.0" type="line"/>
      <point x="389.2" y="-250.0"/>
      <point x="468.2" y="-235.0"/>
      <point x="512.6" y="-190.6" type="curve"/>
      <point x="533.4" y="-169.8"/>
      <point x="541.2" y="-138.4"/>
    </contour>
    <contour>
      <point x="448.2" y="482.2" type="curve" smooth="yes"/>
      <point x="519.6" y="545.6" type="line" smooth="yes"/>
      <point x="546.2" y="569.4"/>
      <point x="560.0" y="582.8"/>
      <point x="560.0" y="613.4" type="curve" smooth="yes"/>
      <point x="560.0" y="616.6"/>
      <point x="560.0" y="624.8"/>
      <point x="560.0" y="629.2" type="curve" smooth="yes"/>
      <point x="560.0" y="635.4"/>
      <point x="558.0" y="639.0"/>
      <point x="553.8" y="643.2" type="curve" smooth="yes"/>
      <point x="538.6" y="658.4"/>
      <point x="511.4" y="665.0"/>
      <point x="482.0" y="665.0" type="curve" smooth="yes"/>
      <point x="470.0" y="665.0" type="line"/>
      <point x="470.0" y="659.0"/>
      <point x="470.0" y="647.4"/>
      <point x="470.0" y="641.4" type="curve" smooth="yes"/>
      <point x="470.0" y="621.8"/>
      <point x="465.0" y="609.2"/>
      <point x="457.8" y="592.2" type="curve" smooth="yes"/>
      <point x="414.2" y="489.0" type="line"/>
      <point x="422.0598043666781" y="479.91015371189576"/>
      <point x="439.2" y="474.8"/>
    </contour>
  </outline>
</glyph>
<glyph name="h" format="2">
  <advance width="600.0"/>
  <unicode hex="0068"/>
  <outline>
    <contour>
      <point x="180.0" y="-10.0" type="line"/>
      <point x="180.0" y="157.51503267973857"/>
      <point x="180.0" y="574.6849673202614"/>
      <point x="180.0" y="722.2" type="curve" smooth="yes"/>
      <point x="180.0" y="728.4"/>
      <point x="178.0" y="732.0"/>
      <point x="173.8" y="736.2" type="curve" smooth="yes"/>
      <point x="163.4" y="746.6"/>
      <point x="130.8" y="754.0"/>
      <point x="102.0" y="754.0" type="curve" smooth="yes"/>
      <point x="86.0" y="754.0" type="line"/>
      <point x="86.0" y="642.6066666666667"/>
      <point x="86.0" y="302.3933333333333"/>
      <point x="86.0" y="191.0" type="curve" smooth="yes"/>
      <point x="86.0" y="136.4"/>
      <point x="86.0" y="80.4"/>
      <point x="86.0" y="25.8" type="curve" smooth="yes"/>
      <point x="86.0" y="19.6"/>
      <point x="88.0" y="16.0"/>
      <point x="92.2" y="11.8" type="curve" smooth="yes"/>
      <point x="107.4" y="-3.4"/>
      <point x="135.2" y="-10.0"/>
      <point x="164.0" y="-10.0" type="curve" smooth="yes"/>
    </contour>
    <contour>
      <point x="383.6" y="536.0" type="curve" smooth="yes"/>
      <point x="309.2" y="536.0"/>
      <point x="222.8" y="477.0"/>
      <point x="172.0" y="412.0" type="curve" smooth="yes"/>
      <point x="150.4" y="385.4"/>
      <point x="144.6" y="365.6"/>
      <point x="145.8" y="324.6" type="curve"/>
      <point x="244.4" y="428.2"/>
      <point x="300.0" y="446.0"/>
      <point x="379.0" y="446.0" type="curve" smooth="yes"/>
      <point x="417.6" y="446.0"/>
      <point x="453.6" y="426.4"/>
      <point x="481.4" y="384.2" type="curve"/>
      <point x="503.0" y="387.8"/>
      <point x="514.0" y="401.0"/>
      <point x="514.0" y="415.0" type="curve" smooth="yes"/>
      <point x="514.0" y="463.6"/>
      <point x="445.6" y="536.0"/>
    </contour>
    <contour>
      <point x="514.0" y="-10.0" type="line"/>
      <point x="514.0" y="145.28776978417267"/>
      <point x="514.0" y="259.71223021582733"/>
      <point x="514.0" y="415.0" type="curve" smooth="yes"/>
      <point x="514.0" y="421.2"/>
      <point x="512.0" y="424.8"/>
      <point x="507.8" y="429.0" type="curve" smooth="yes"/>
      <point x="492.6" y="444.2"/>
      <point x="464.8" y="450.8"/>
      <point x="436.0" y="450.8" type="curve" smooth="yes"/>
      <point x="420.0" y="450.8" type="line"/>
      <point x="420.0" y="351.4"/>
      <point x="420.0" y="290.8"/>
      <point x="420.0" y="191.0" type="curve" smooth="yes"/>
      <point x="420.0" y="136.2"/>
      <point x="420.0" y="80.6"/>
      <point x="420.0" y="25.8" type="curve" smooth="yes"/>
      <point x="420.0" y="19.6"/>
      <point x="422.0" y="16.0"/>
      <point x="426.2" y="11.8" type="curve" smooth="yes"/>
      <point x="441.4" y="-3.4"/>
      <point x="469.2" y="-10.0"/>
      <point x="498.0" y="-10.0" type="curve" smooth="yes"/>
    </contour>
  </outline>
</glyph>
<glyph name="i" format="2">
  <advance width="300.0"/>
  <unicode hex="0069"/>
  <guideline y="0.0" identifier="MeGjFnIIV6"/>
  <guideline x="0.0" identifier="GOd0KuzhgB"/>
  <guideline x="50.0" identifier="HsBTfQ86Ci"/>
  <guideline x="100.0" identifier="M24McFw3p1"/>
  <guideline x="150.0" identifier="AwXYpQzJ6m"/>
  <guideline x="200.0" identifier="tJyAZbCWVJ"/>
  <guideline x="250.0" identifier="SvMhguasMP"/>
  <guideline x="300.0" identifier="g4qbs6NHyr"/>
  <guideline y="-250.0" identifier="XPlBunQhqZ"/>
  <guideline y="-200.0" identifier="hFmHw4nHPS"/>
  <guideline y="-150.0" identifier="D9WtuVs5Ex"/>
  <guideline y="-100.0" identifier="7CcwqiBYAT"/>
  <guideline y="-50.0" identifier="FPIORwy7au"/>
  <guideline y="50.0" identifier="AeyNZ77NMX"/>
  <guideline y="100.0" identifier="8bdITXBMYI"/>
  <guideline y="150.0" identifier="c9M6davzUK"/>
  <guideline y="200.0" identifier="GscesOtgzc"/>
  <guideline y="250.0" identifier="ApKPpEtVzB"/>
  <guideline y="300.0" identifier="lAKBXnpEtB"/>
  <guideline y="350.0" identifier="eokXWTDSu3"/>
  <guideline y="400.0" identifier="szPlmhI2TQ"/>
  <guideline y="450.0" identifier="8uReE326Cl"/>
  <guideline y="500.0" identifier="of8Z8N4gii"/>
  <guideline y="550.0" identifier="eZZMPFek6p"/>
  <guideline y="600.0" identifier="WnMEL2Kc2z"/>
  <guideline y="650.0" identifier="ESrDj4cdhh"/>
  <guideline y="700.0" identifier="MNZ7BO71IH"/>
  <outline>
    <contour>
      <point x="210.0" y="613.0" type="line"/>
      <point x="210.0" y="636.6"/>
      <point x="210.0" y="670.0"/>
      <point x="210.0" y="693.6" type="curve" smooth="yes"/>
      <point x="210.0" y="701.0"/>
      <point x="208.6" y="704.0"/>
      <point x="202.0" y="710.6" type="curve" smooth="yes"/>
      <point x="186.6" y="726.0"/>
      <point x="168.6" y="732.6"/>
      <point x="138.6" y="732.6" type="curve"/>
      <point x="90.0" y="732.6" type="line"/>
      <point x="90.0" y="708.4"/>
      <point x="90.0" y="676.6"/>
      <point x="90.0" y="652.0" type="curve" smooth="yes"/>
      <point x="90.0" y="644.6"/>
      <point x="91.4" y="641.6"/>
      <point x="98.0" y="635.0" type="curve" smooth="yes"/>
      <point x="113.0" y="620.0"/>
      <point x="132.0" y="613.0"/>
      <point x="161.4" y="613.0" type="curve"/>
    </contour>
    <contour>
      <point x="197.0" y="-10.0" type="line"/>
      <point x="197.0" y="155.4"/>
      <point x="197.0" y="328.8"/>
      <point x="197.0" y="494.2" type="curve" smooth="yes"/>
      <point x="197.0" y="500.4"/>
      <point x="195.0" y="504.0"/>
      <point x="190.8" y="508.2" type="curve" smooth="yes"/>
      <point x="180.4" y="518.6"/>
      <point x="147.8" y="526.0"/>
      <point x="119.0" y="526.0" type="curve" smooth="yes"/>
      <point x="103.0" y="526.0" type="line"/>
      <point x="103.0" y="415.4"/>
      <point x="103.0" y="297.6"/>
      <point x="103.0" y="187.0" type="curve" smooth="yes"/>
      <point x="103.0" y="133.6"/>
      <point x="103.0" y="79.2"/>
      <point x="103.0" y="25.8" type="curve" smooth="yes"/>
      <point x="103.0" y="19.6"/>
      <point x="105.0" y="16.0"/>
      <point x="109.2" y="11.8" type="curve" smooth="yes"/>
      <point x="124.4" y="-3.4"/>
      <point x="152.2" y="-10.0"/>
      <point x="181.0" y="-10.0" type="curve" smooth="yes"/>
    </contour>
  </outline>
</glyph>
<glyph name="j" format="2">
  <advance width="300.0"/>
  <unicode hex="006A"/>
  <guideline y="0.0" identifier="Gf0BLhH1Gp"/>
  <guideline x="0.0" identifier="jAs656jmL7"/>
  <guideline x="50.0" identifier="R0YQBRbOYy"/>
  <guideline x="100.0" identifier="AWCsFaaIeR"/>
  <guideline x="150.0" identifier="GB7jSGv1BY"/>
  <guideline x="200.0" identifier="Gaot9tGUYM"/>
  <guideline x="250.0" identifier="NJyg7xfrTT"/>
  <guideline x="300.0" identifier="OsUZw1OWIV"/>
  <guideline y="-250.0" identifier="ZOpDRYYFry"/>
  <guideline y="-200.0" identifier="eZ2uxNI2f5"/>
  <guideline y="-150.0" identifier="alYRtCNk6j"/>
  <guideline y="-100.0" identifier="N0wFEmmvmE"/>
  <guideline y="-50.0" identifier="HybNVKZe1b"/>
  <guideline y="50.0" identifier="Cbr1diAA0Z"/>
  <guideline y="100.0" identifier="KMtpWtOBoC"/>
  <guideline y="150.0" identifier="9Dd4fvgoz9"/>
  <guideline y="200.0" identifier="rG0Xxb5CP1"/>
  <guideline y="250.0" identifier="R5OzilDhW0"/>
  <guideline y="300.0" identifier="oN5gjervbN"/>
  <guideline y="350.0" identifier="DglLgtlVY8"/>
  <guideline y="400.0" identifier="gJ1Q7YjEqr"/>
  <guideline y="450.0" identifier="RDHTxWfqoJ"/>
  <guideline y="500.0" identifier="lpLHnqr7jX"/>
  <guideline y="550.0" identifier="oLsvOyGBym"/>
  <guideline y="600.0" identifier="1VgzhD3IDm"/>
  <guideline y="650.0" identifier="r8FtNGWXDp"/>
  <guideline y="700.0" identifier="lfnZAUIDRO"/>
  <outline>
    <contour>
      <point x="210.0" y="613.0" type="line"/>
      <point x="210.0" y="636.6"/>
      <point x="210.0" y="670.0"/>
      <point x="210.0" y="693.6" type="curve" smooth="yes"/>
      <point x="210.0" y="701.0"/>
      <point x="208.6" y="704.0"/>
      <point x="202.0" y="710.6" type="curve" smooth="yes"/>
      <point x="186.6" y="726.0"/>
      <point x="168.6" y="732.6"/>
      <point x="138.6" y="732.6" type="curve"/>
      <point x="90.0" y="732.6" type="line"/>
      <point x="90.0" y="708.4"/>
      <point x="90.0" y="676.6"/>
      <point x="90.0" y="652.0" type="curve" smooth="yes"/>
      <point x="90.0" y="644.6"/>
      <point x="91.4" y="641.6"/>
      <point x="98.0" y="635.0" type="curve" smooth="yes"/>
      <point x="113.0" y="620.0"/>
      <point x="132.0" y="613.0"/>
      <point x="161.4" y="613.0" type="curve"/>
    </contour>
    <contour>
      <point x="45.400000000000006" y="-250.0" type="line"/>
      <point x="114.4" y="-250.0"/>
      <point x="197.0" y="-197.2"/>
      <point x="197.0" y="-8.0" type="curve" smooth="yes"/>
      <point x="197.0" y="156.8"/>
      <point x="197.0" y="329.4"/>
      <point x="197.0" y="494.2" type="curve" smooth="yes"/>
      <point x="197.0" y="500.4"/>
      <point x="195.0" y="504.0"/>
      <point x="190.8" y="508.2" type="curve" smooth="yes"/>
      <point x="180.4" y="518.6"/>
      <point x="147.8" y="526.0"/>
      <point x="119.0" y="526.0" type="curve" smooth="yes"/>
      <point x="103.0" y="526.0" type="line"/>
      <point x="103.0" y="423.2"/>
      <point x="103.0" y="282.0"/>
      <point x="103.0" y="211.0" type="curve"/>
      <point x="103.0" y="137.8"/>
      <point x="103.0" y="64.8"/>
      <point x="103.0" y="-8.0" type="curve" smooth="yes"/>
      <point x="103.0" y="-116.0"/>
      <point x="79.2" y="-160.0"/>
      <point x="5.4" y="-160.0" type="curve"/>
      <point x="-4.0" y="-160.0" type="line"/>
      <point x="-4.0" y="-166.8" type="line" smooth="yes"/>
      <point x="-4.0" y="-217.4"/>
      <point x="11.8" y="-250.0"/>
      <point x="33.400000000000006" y="-250.0" type="curve" smooth="yes"/>
    </contour>
  </outline>
</glyph>
<glyph name="k" format="2">
  <advance width="600.0"/>
  <unicode hex="006B"/>
  <outline>
    <contour>
      <point x="176.0" y="-10.0" type="line"/>
      <point x="176.0" y="157.4"/>
      <point x="176.0" y="574.8"/>
      <point x="176.0" y="722.2" type="curve" smooth="yes"/>
      <point x="176.0" y="728.4"/>
      <point x="174.0" y="732.0"/>
      <point x="169.8" y="736.2" type="curve" smooth="yes"/>
      <point x="159.4" y="746.6"/>
      <point x="130.8" y="754.0"/>
      <point x="102.0" y="754.0" type="curve" smooth="yes"/>
      <point x="86.0" y="754.0" type="line"/>
      <point x="86.0" y="642.6"/>
      <point x="86.0" y="302.4"/>
      <point x="86.0" y="191.0" type="curve" smooth="yes"/>
      <point x="86.0" y="136.4"/>
      <point x="86.0" y="80.4"/>
      <point x="86.0" y="25.8" type="curve" smooth="yes"/>
      <point x="86.0" y="19.6"/>
      <point x="88.0" y="16.0"/>
      <point x="92.2" y="11.8" type="curve" smooth="yes"/>
      <point x="107.4" y="-3.4"/>
      <point x="131.2" y="-10.0"/>
      <point x="160.0" y="-10.0" type="curve" smooth="yes"/>
    </contour>
    <contour>
      <point x="298.4" y="281.4" type="line"/>
      <point x="256.0" y="246.2"/>
      <point x="246.4" y="214.6"/>
      <point x="258.0" y="201.0" type="curve" smooth="yes"/>
      <point x="378.2" y="56.4" type="line" smooth="yes"/>
      <point x="427.6" y="-2.6"/>
      <point x="457.2" y="-20.0"/>
      <point x="504.0" y="-20.0" type="curve" smooth="yes"/>
      <point x="527.6" y="-20.0"/>
      <point x="550.0" y="-5.4"/>
      <point x="550.0" y="14.0" type="curve" smooth="yes"/>
      <point x="550.0" y="90.0" type="line"/>
      <point x="534.0" y="90.0" type="line"/>
      <point x="526.0" y="83.4"/>
      <point x="511.6" y="78.0"/>
      <point x="500.0" y="78.0" type="curve" smooth="yes"/>
      <point x="473.2" y="78.0"/>
      <point x="455.4" y="88.80000000000001"/>
      <point x="433.4" y="116.0" type="curve" smooth="yes"/>
    </contour>
    <contour>
      <point x="457.0" y="530.0" type="curve" smooth="yes"/>
      <point x="441.4" y="530.0" type="line"/>
      <point x="371.0" y="355.4"/>
      <point x="262.6" y="261.2"/>
      <point x="122.0" y="213.6" type="curve"/>
      <point x="122.0" y="176.2"/>
      <point x="138.0" y="157.8"/>
      <point x="155.4" y="161.2" type="curve" smooth="yes"/>
      <point x="299.2" y="192.2"/>
      <point x="430.8" y="286.6"/>
      <point x="518.4" y="465.6" type="curve" smooth="yes"/>
      <point x="525.4" y="480.0"/>
      <point x="527.6" y="486.6"/>
      <point x="527.6" y="491.8" type="curve" smooth="yes"/>
      <point x="527.6" y="510.2"/>
      <point x="497.378" y="530.0"/>
    </contour>
  </outline>
</glyph>
<glyph name="l" format="2">
  <advance width="300.0"/>
  <unicode hex="006C"/>
  <outline>
    <contour>
      <point x="34.0" y="750.0" type="curve"/>
      <point x="34.0" y="734.0" type="line" smooth="yes"/>
      <point x="34.0" y="697.6"/>
      <point x="38.6" y="677.4"/>
      <point x="49.8" y="666.2" type="curve" smooth="yes"/>
      <point x="54.0" y="662.0"/>
      <point x="57.6" y="660.0"/>
      <point x="63.8" y="660.0" type="curve"/>
      <point x="106.0" y="660.0"/>
      <point x="117.8" y="660.0"/>
      <point x="159.6" y="660.0" type="curve"/>
      <point x="159.6" y="676.0" type="line" smooth="yes"/>
      <point x="159.6" y="695.6"/>
      <point x="148.2" y="725.4"/>
      <point x="129.8" y="743.8" type="curve" smooth="yes"/>
      <point x="125.6" y="748.0"/>
      <point x="122.0" y="750.0"/>
      <point x="115.8" y="750.0" type="curve" smooth="yes"/>
      <point x="97.8" y="750.0"/>
      <point x="52.0" y="750.0"/>
    </contour>
    <contour>
      <point x="197.0" y="-10.0" type="line"/>
      <point x="197.0" y="157.4"/>
      <point x="197.0" y="570.8"/>
      <point x="197.0" y="718.2" type="curve" smooth="yes"/>
      <point x="197.0" y="724.4"/>
      <point x="195.0" y="728.0"/>
      <point x="190.8" y="732.2" type="curve" smooth="yes"/>
      <point x="180.4" y="742.6"/>
      <point x="147.8" y="750.0"/>
      <point x="119.0" y="750.0" type="curve" smooth="yes"/>
      <point x="103.0" y="750.0" type="line"/>
      <point x="103.0" y="638.6"/>
      <point x="103.0" y="302.4"/>
      <point x="103.0" y="191.0" type="curve" smooth="yes"/>
      <point x="103.0" y="136.4"/>
      <point x="103.0" y="80.4"/>
      <point x="103.0" y="25.8" type="curve" smooth="yes"/>
      <point x="103.0" y="19.6"/>
      <point x="105.0" y="16.0"/>
      <point x="109.2" y="11.8" type="curve" smooth="yes"/>
      <point x="124.4" y="-3.4"/>
      <point x="152.2" y="-10.0"/>
      <point x="181.0" y="-10.0" type="curve" smooth="yes"/>
    </contour>
  </outline>
</glyph>
<glyph name="m" format="2">
  <advance width="900.0"/>
  <unicode hex="006D"/>
  <outline>
    <contour>
      <point x="180.0" y="-10.0" type="line"/>
      <point x="180.0" y="159.6"/>
      <point x="180.0" y="329.2"/>
      <point x="180.0" y="498.2" type="curve" smooth="yes"/>
      <point x="180.0" y="504.4"/>
      <point x="178.0" y="508.0"/>
      <point x="173.8" y="512.2" type="curve" smooth="yes"/>
      <point x="163.4" y="522.6"/>
      <point x="130.8" y="530.0"/>
      <point x="102.0" y="530.0" type="curve" smooth="yes"/>
      <point x="86.0" y="530.0" type="line"/>
      <point x="86.0" y="417.6"/>
      <point x="86.0" y="303.4"/>
      <point x="86.0" y="191.0" type="curve" smooth="yes"/>
      <point x="86.0" y="136.4"/>
      <point x="86.0" y="80.4"/>
      <point x="86.0" y="25.8" type="curve" smooth="yes"/>
      <point x="86.0" y="19.6"/>
      <point x="88.0" y="16.0"/>
      <point x="92.2" y="11.8" type="curve" smooth="yes"/>
      <point x="107.4" y="-3.4"/>
      <point x="135.2" y="-10.0"/>
      <point x="164.0" y="-10.0" type="curve" smooth="yes"/>
    </contour>
    <contour>
      <point x="371.6" y="536.0" type="curve" smooth="yes"/>
      <point x="297.2" y="536.0"/>
      <point x="222.8" y="477.0"/>
      <point x="172.0" y="412.0" type="curve" smooth="yes"/>
      <point x="150.4" y="385.4"/>
      <point x="144.6" y="365.6"/>
      <point x="145.8" y="324.6" type="curve"/>
      <point x="240.4" y="416.2"/>
      <point x="288.0" y="442.0"/>
      <point x="367.0" y="442.0" type="curve" smooth="yes"/>
      <point x="405.6" y="442.0"/>
      <point x="438.6" y="422.4"/>
      <point x="454.4" y="368.2" type="curve"/>
      <point x="488.0" y="383.8"/>
      <point x="499.0" y="401.0"/>
      <point x="499.0" y="415.0" type="curve" smooth="yes"/>
      <point x="499.0" y="463.6"/>
      <point x="433.6" y="536.0"/>
    </contour>
    <contour>
      <point x="499.0" y="-10.0" type="line"/>
      <point x="499.0" y="145.4"/>
      <point x="499.0" y="259.6"/>
      <point x="499.0" y="415.0" type="curve" smooth="yes"/>
      <point x="499.0" y="421.2"/>
      <point x="497.0" y="424.8"/>
      <point x="492.8" y="429.0" type="curve" smooth="yes"/>
      <point x="477.6" y="444.2"/>
      <point x="449.8" y="450.8"/>
      <point x="421.0" y="450.8" type="curve" smooth="yes"/>
      <point x="405.0" y="450.8" type="line"/>
      <point x="405.0" y="351.4"/>
      <point x="405.0" y="290.8"/>
      <point x="405.0" y="191.0" type="curve" smooth="yes"/>
      <point x="405.0" y="136.4"/>
      <point x="405.0" y="80.4"/>
      <point x="405.0" y="25.8" type="curve" smooth="yes"/>
      <point x="405.0" y="19.6"/>
      <point x="407.0" y="16.0"/>
      <point x="411.2" y="11.8" type="curve" smooth="yes"/>
      <point x="426.4" y="-3.4"/>
      <point x="454.2" y="-10.0"/>
      <point x="483.0" y="-10.0" type="curve" smooth="yes"/>
    </contour>
    <contour>
      <point x="686.6" y="536.0" type="curve" smooth="yes"/>
      <point x="612.2" y="536.0"/>
      <point x="537.8" y="477.0"/>
      <point x="487.0" y="412.0" type="curve" smooth="yes"/>
      <point x="465.4" y="385.4"/>
      <point x="459.6" y="365.6"/>
      <point x="460.8" y="324.6" type="curve"/>
      <point x="555.4" y="416.2"/>
      <point x="603.0" y="442.0"/>
      <point x="682.0" y="442.0" type="curve" smooth="yes"/>
      <point x="720.6" y="442.0"/>
      <point x="753.6" y="422.4"/>
      <point x="769.4" y="368.2" type="curve"/>
      <point x="803.0" y="383.8"/>
      <point x="814.0" y="401.0"/>
      <point x="814.0" y="415.0" type="curve" smooth="yes"/>
      <point x="814.0" y="463.6"/>
      <point x="748.6" y="536.0"/>
    </contour>
    <contour>
      <point x="814.0" y="-10.0" type="line"/>
      <point x="814.0" y="145.4"/>
      <point x="814.0" y="259.6"/>
      <point x="814.0" y="415.0" type="curve" smooth="yes"/>
      <point x="814.0" y="421.2"/>
      <point x="812.0" y="424.8"/>
      <point x="807.8" y="429.0" type="curve" smooth="yes"/>
      <point x="792.6" y="444.2"/>
      <point x="764.8" y="450.8"/>
      <point x="736.0" y="450.8" type="curve" smooth="yes"/>
      <point x="720.0" y="450.8" type="line"/>
      <point x="720.0" y="351.4"/>
      <point x="720.0" y="290.8"/>
      <point x="720.0" y="191.0" type="curve" smooth="yes"/>
      <point x="720.0" y="136.4"/>
      <point x="720.0" y="80.4"/>
      <point x="720.0" y="25.8" type="curve" smooth="yes"/>
      <point x="720.0" y="19.6"/>
      <point x="722.0" y="16.0"/>
      <point x="726.2" y="11.8" type="curve" smooth="yes"/>
      <point x="741.4" y="-3.4"/>
      <point x="769.2" y="-10.0"/>
      <point x="798.0" y="-10.0" type="curve" smooth="yes"/>
    </contour>
  </outline>
</glyph>
<glyph name="o" format="2">
  <advance width="600.0"/>
  <unicode hex="006F"/>
  <outline>
    <contour>
      <point x="296.0" y="540.0" type="curve" smooth="yes"/>
      <point x="161.46133333333333" y="540.0"/>
      <point x="59.0" y="431.4530612244898"/>
      <point x="59.0" y="279.0" type="curve" smooth="yes"/>
      <point x="59.0" y="233.0" type="line" smooth="yes"/>
      <point x="59.0" y="85.8"/>
      <point x="159.16866915780398" y="-20.0"/>
      <point x="286.8" y="-20.0" type="curve" smooth="yes"/>
      <point x="304.0" y="-20.0" type="line" smooth="yes"/>
      <point x="328.6" y="-20.0"/>
      <point x="340.8" y="6.0"/>
      <point x="340.8" y="35.6" type="curve"/>
      <point x="188.57739783055933" y="48.20513279149887"/>
      <point x="149.0" y="142.2"/>
      <point x="149.0" y="223.2" type="curve" smooth="yes"/>
      <point x="149.0" y="267.0" type="line" smooth="yes"/>
      <point x="149.0" y="359.6"/>
      <point x="205.65434782608696" y="450.4"/>
      <point x="315.0" y="450.4" type="curve" smooth="yes"/>
      <point x="364.8" y="450.4"/>
      <point x="394.8" y="442.2"/>
      <point x="429.0" y="426.0" type="curve"/>
      <point x="438.6" y="432.0"/>
      <point x="441.2" y="437.0"/>
      <point x="441.2" y="451.8" type="curve"/>
      <point x="441.2" y="493.4"/>
      <point x="371.5910447761194" y="540.0"/>
    </contour>
    <contour>
      <point x="304.0" y="-20.0" type="curve" smooth="yes"/>
      <point x="438.8" y="-20.0"/>
      <point x="541.0" y="88.5469387755102"/>
      <point x="541.0" y="241.0" type="curve" smooth="yes"/>
      <point x="541.0" y="287.0" type="line" smooth="yes"/>
      <point x="541.0" y="434.2"/>
      <point x="441.0" y="540.0"/>
      <point x="313.2" y="540.0" type="curve" smooth="yes"/>
      <point x="296.0" y="540.0" type="line" smooth="yes"/>
      <point x="271.4" y="540.0"/>
      <point x="259.2" y="514.0"/>
      <point x="259.2" y="484.4" type="curve"/>
      <point x="411.2" y="471.8"/>
      <point x="451.0" y="377.8"/>
      <point x="451.0" y="296.8" type="curve" smooth="yes"/>
      <point x="451.0" y="253.0" type="line" smooth="yes"/>
      <point x="451.0" y="160.4"/>
      <point x="394.6" y="69.6"/>
      <point x="285.0" y="69.6" type="curve" smooth="yes"/>
      <point x="235.2" y="69.6"/>
      <point x="205.2" y="77.80000000000001"/>
      <point x="171.0" y="94.0" type="curve"/>
      <point x="161.4" y="88.0"/>
      <point x="158.8" y="83.0"/>
      <point x="158.8" y="68.2" type="curve"/>
      <point x="158.8" y="26.6"/>
      <point x="228.2" y="-20.0"/>
    </contour>
  </outline>
</glyph>
<glyph name="p" format="2">
  <advance width="600.0"/>
  <unicode hex="0070"/>
  <outline>
    <contour>
      <point x="180.0" y="-240.0" type="line"/>
      <point x="180.0" y="-35.55420974889218"/>
      <point x="180.0" y="287.8968670915495"/>
      <point x="180.0" y="492.2" type="curve" smooth="yes"/>
      <point x="180.0" y="498.4"/>
      <point x="178.0" y="502.0"/>
      <point x="173.8" y="506.2" type="curve" smooth="yes"/>
      <point x="163.4" y="516.6"/>
      <point x="130.8" y="524.0"/>
      <point x="102.0" y="524.0" type="curve" smooth="yes"/>
      <point x="86.0" y="524.0" type="line"/>
      <point x="86.0" y="413.4"/>
      <point x="86.0" y="301.6"/>
      <point x="86.0" y="191.0" type="curve" smooth="yes"/>
      <point x="86.0" y="101.91616622627912"/>
      <point x="86.0" y="-114.92486187845304"/>
      <point x="86.0" y="-204.2" type="curve" smooth="yes"/>
      <point x="86.0" y="-210.4"/>
      <point x="88.0" y="-214.0"/>
      <point x="92.2" y="-218.2" type="curve" smooth="yes"/>
      <point x="107.4" y="-233.4"/>
      <point x="135.2" y="-240.0"/>
      <point x="164.0" y="-240.0" type="curve" smooth="yes"/>
    </contour>
    <contour>
      <point x="381.6" y="536.0" type="curve" smooth="yes"/>
      <point x="306.4327031170159" y="536.0"/>
      <point x="225.40637840153215" y="481.0911501997396"/>
      <point x="172.0" y="412.0" type="curve" smooth="yes"/>
      <point x="150.8" y="385.4"/>
      <point x="144.6" y="365.6"/>
      <point x="145.8" y="324.6" type="curve"/>
      <point x="240.2097892316475" y="415.8674085516571"/>
      <point x="298.8207923248697" y="442.0"/>
      <point x="377.0" y="442.0" type="curve" smooth="yes"/>
      <point x="437.0" y="442.0"/>
      <point x="479.0" y="390.8"/>
      <point x="498.4" y="312.4" type="curve"/>
      <point x="532.0" y="314.8"/>
      <point x="545.0" y="330.2"/>
      <point x="545.0" y="343.6" type="curve" smooth="yes"/>
      <point x="545.0" y="448.6"/>
      <point x="463.0" y="536.0"/>
    </contour>
    <contour>
      <point x="320.0" y="-20.0" type="curve" smooth="yes"/>
      <point x="469.0888372093023" y="-20.0"/>
      <point x="545.0" y="110.8"/>
      <point x="545.0" y="307.0" type="curve" smooth="yes"/>
      <point x="545.0" y="343.6" type="line" smooth="yes"/>
      <point x="545.0" y="390.8"/>
      <point x="505.2" y="460.8"/>
      <point x="463.6" y="460.8" type="curve"/>
      <point x="438.6" y="460.8"/>
      <point x="420.4" y="455.0"/>
      <point x="419.2" y="438.6" type="curve"/>
      <point x="438.6" y="405.4"/>
      <point x="449.0" y="379.2"/>
      <point x="449.0" y="329.6" type="curve" smooth="yes"/>
      <point x="449.0" y="307.0" type="line" smooth="yes"/>
      <point x="449.0" y="163.2"/>
      <point x="392.23636363636365" y="68.0"/>
      <point x="290.0" y="68.0" type="curve" smooth="yes"/>
      <point x="242.6" y="68.0"/>
      <point x="210.4" y="75.2"/>
      <point x="169.0" y="90.8" type="curve"/>
      <point x="163.8" y="89.2"/>
      <point x="161.6" y="85.0"/>
      <point x="161.6" y="78.2" type="curve"/>
      <point x="161.6" y="42.84724409448819"/>
      <point x="242.2" y="-20.0"/>
    </contour>
  </outline>
</glyph>
<glyph name="q" format="2">
  <advance width="600.0"/>
  <unicode hex="0071"/>
  <outline>
    <contour>
      <point x="514.0" y="-240.0" type="line"/>
      <point x="514.0" y="-34.36943231441047"/>
      <point x="514.0" y="292.7120896570678"/>
      <point x="514.0" y="498.2" type="curve" smooth="yes"/>
      <point x="514.0" y="504.4"/>
      <point x="512.0" y="508.0"/>
      <point x="507.8" y="512.2" type="curve" smooth="yes"/>
      <point x="497.4" y="522.6"/>
      <point x="464.8" y="530.0"/>
      <point x="436.0" y="530.0" type="curve" smooth="yes"/>
      <point x="420.0" y="530.0" type="line"/>
      <point x="420.0" y="403.4"/>
      <point x="420.0" y="275.6"/>
      <point x="420.0" y="149.0" type="curve" smooth="yes"/>
      <point x="420.0" y="61.18271604938271"/>
      <point x="420.0" y="-116.47619047619048"/>
      <point x="420.0" y="-204.2" type="curve" smooth="yes"/>
      <point x="420.0" y="-210.4"/>
      <point x="422.0" y="-214.0"/>
      <point x="426.2" y="-218.2" type="curve" smooth="yes"/>
      <point x="441.4" y="-233.4"/>
      <point x="469.2" y="-240.0"/>
      <point x="498.0" y="-240.0" type="curve" smooth="yes"/>
    </contour>
    <contour>
      <point x="280.0" y="540.0" type="curve" smooth="yes"/>
      <point x="151.72" y="540.0"/>
      <point x="61.0" y="421.2"/>
      <point x="61.0" y="219.0" type="curve" smooth="yes"/>
      <point x="61.0" y="184.4" type="line" smooth="yes"/>
      <point x="61.0" y="138.2"/>
      <point x="96.2" y="69.8"/>
      <point x="143.0" y="69.8" type="curve"/>
      <point x="160.4" y="69.8"/>
      <point x="173.0" y="74.8"/>
      <point x="174.2" y="89.2" type="curve"/>
      <point x="163.2" y="115.2"/>
      <point x="157.0" y="149.4"/>
      <point x="157.0" y="206.4" type="curve" smooth="yes"/>
      <point x="157.0" y="225.0" type="line" smooth="yes"/>
      <point x="157.0" y="360.6"/>
      <point x="205.24" y="452.0"/>
      <point x="294.8" y="452.0" type="curve" smooth="yes"/>
      <point x="354.8" y="452.0"/>
      <point x="384.2" y="435.2"/>
      <point x="435.8" y="387.2" type="curve"/>
      <point x="443.8" y="389.2"/>
      <point x="445.2" y="404.6"/>
      <point x="440.4" y="415.0" type="curve"/>
      <point x="427.8981067858604" y="464.652175573662"/>
      <point x="358.06" y="540.0"/>
    </contour>
    <contour>
      <point x="218.4" y="-16.0" type="curve" smooth="yes"/>
      <point x="291.4620337250894" y="-16.0"/>
      <point x="379.1778170979762" y="39.51357187375514"/>
      <point x="428.0" y="102.0" type="curve" smooth="yes"/>
      <point x="449.6" y="128.6"/>
      <point x="455.4" y="148.4"/>
      <point x="454.2" y="189.4" type="curve"/>
      <point x="362.1777239583399" y="100.63028627451479"/>
      <point x="301.1792076751303" y="78.0"/>
      <point x="223.0" y="78.0" type="curve" smooth="yes"/>
      <point x="156.2" y="78.0"/>
      <point x="128.2" y="146.0"/>
      <point x="102.0" y="230.0" type="curve"/>
      <point x="71.4" y="227.6"/>
      <point x="61.0" y="205.0"/>
      <point x="61.0" y="184.4" type="curve" smooth="yes"/>
      <point x="61.0" y="81.8"/>
      <point x="123.0" y="-16.0"/>
    </contour>
  </outline>
</glyph>
<glyph name="r" format="2">
  <advance width="600.0"/>
  <unicode hex="0072"/>
  <outline>
    <contour>
      <point x="400.6" y="540.0" type="curve" smooth="yes"/>
      <point x="338.5797421731123" y="540.0"/>
      <point x="268.2371347698845" y="477.05056649516183"/>
      <point x="222.0" y="413.8" type="curve" smooth="yes"/>
      <point x="201.6" y="385.8"/>
      <point x="194.6" y="366.2"/>
      <point x="195.8" y="324.6" type="curve"/>
      <point x="283.8806729719835" y="410.513796309033"/>
      <point x="327.71318748722143" y="442.0"/>
      <point x="396.0" y="442.0" type="curve" smooth="yes"/>
      <point x="434.40000000000003" y="442.0"/>
      <point x="470.38103798234965" y="422.3395341639273"/>
      <point x="498.4" y="380.2" type="curve"/>
      <point x="520.0" y="383.8"/>
      <point x="531.0" y="401.0"/>
      <point x="531.0" y="415.0" type="curve" smooth="yes"/>
      <point x="531.0" y="465.14054054054054"/>
      <point x="462.68955223880596" y="540.0"/>
    </contour>
    <contour>
      <point x="531.0" y="234.0" type="line"/>
      <point x="531.0" y="300.0"/>
      <point x="531.0" y="348.6"/>
      <point x="531.0" y="415.0" type="curve" smooth="yes"/>
      <point x="531.0" y="421.2"/>
      <point x="529.0" y="424.8"/>
      <point x="524.8" y="429.0" type="curve" smooth="yes"/>
      <point x="509.6" y="444.2"/>
      <point x="481.8" y="450.8"/>
      <point x="453.0" y="450.8" type="curve" smooth="yes"/>
      <point x="437.0" y="450.8" type="line"/>
      <point x="437.0" y="385.4"/>
      <point x="437.0" y="335.2"/>
      <point x="437.0" y="269.8" type="curve" smooth="yes"/>
      <point x="437.0" y="263.6"/>
      <point x="439.0" y="260.0"/>
      <point x="443.2" y="255.8" type="curve" smooth="yes"/>
      <point x="458.4" y="240.6"/>
      <point x="486.2" y="234.0"/>
      <point x="515.0" y="234.0" type="curve" smooth="yes"/>
    </contour>
    <contour>
      <point x="40.0" y="520.0" type="curve"/>
      <point x="40.0" y="504.0" type="line" smooth="yes"/>
      <point x="40.0" y="467.6"/>
      <point x="44.6" y="447.4"/>
      <point x="55.8" y="436.2" type="curve" smooth="yes"/>
      <point x="60.0" y="432.0"/>
      <point x="63.6" y="430.0"/>
      <point x="69.8" y="430.0" type="curve"/>
      <point x="123.0602409638554" y="430.0"/>
      <point x="130.93009708737864" y="430.0"/>
      <point x="183.6" y="430.0" type="curve"/>
      <point x="183.6" y="446.0" type="line" smooth="yes"/>
      <point x="183.6" y="465.6"/>
      <point x="172.2" y="495.4"/>
      <point x="153.8" y="513.8" type="curve" smooth="yes"/>
      <point x="149.6" y="518.0"/>
      <point x="146.0" y="520.0"/>
      <point x="139.8" y="520.0" type="curve" smooth="yes"/>
      <point x="118.11844660194174" y="520.0"/>
      <point x="61.903614457831324" y="520.0"/>
    </contour>
    <contour>
      <point x="230.0" y="-10.0" type="line"/>
      <point x="230.0" y="119.6"/>
      <point x="230.0" y="248.6"/>
      <point x="230.0" y="378.2" type="curve"/>
      <point x="230.0" y="451.8"/>
      <point x="197.6" y="520.0"/>
      <point x="156.0" y="520.0" type="curve" smooth="yes"/>
      <point x="136.0" y="520.0" type="line"/>
      <point x="136.0" y="430.0"/>
      <point x="136.0" y="290.2"/>
      <point x="136.0" y="209.2" type="curve" smooth="yes"/>
      <point x="136.0" y="147.8"/>
      <point x="136.0" y="86.0"/>
      <point x="136.0" y="25.8" type="curve"/>
      <point x="136.0" y="19.6"/>
      <point x="138.0" y="16.0"/>
      <point x="142.2" y="11.8" type="curve" smooth="yes"/>
      <point x="157.4" y="-3.4"/>
      <point x="185.2" y="-10.0"/>
      <point x="214.0" y="-10.0" type="curve" smooth="yes"/>
    </contour>
  </outline>
</glyph>
<glyph name="s" format="2">
  <advance width="600.0"/>
  <unicode hex="0073"/>
  <outline>
    <contour>
      <point x="375.6" y="540.0" type="curve" smooth="yes"/>
      <point x="241.0" y="540.0"/>
      <point x="90.0" y="456.4"/>
      <point x="90.0" y="361.2" type="curve" smooth="yes"/>
      <point x="90.0" y="341.4" type="line" smooth="yes"/>
      <point x="90.0" y="304.68"/>
      <point x="144.00338983050847" y="294.2"/>
      <point x="184.2" y="294.2" type="curve"/>
      <point x="180.66507172857342" y="311.3544333533447"/>
      <point x="180.0" y="333.4"/>
      <point x="180.0" y="349.0" type="curve" smooth="yes"/>
      <point x="180.0" y="404.73333333333335"/>
      <point x="282.8" y="450.0"/>
      <point x="371.4" y="450.0" type="curve" smooth="yes"/>
      <point x="429.0" y="450.0"/>
      <point x="466.0" y="441.2"/>
      <point x="493.4" y="426.0" type="curve"/>
      <point x="510.0" y="426.0" type="line"/>
      <point x="510.0" y="497.6" type="line"/>
      <point x="510.0" y="522.0"/>
      <point x="456.4" y="540.0"/>
    </contour>
    <contour>
      <point x="384.4" y="276.2" type="curve" smooth="yes"/>
      <point x="291.6" y="294.4" type="line" smooth="yes"/>
      <point x="195.59844619009914" y="312.8602803964528"/>
      <point x="180.0" y="327.0"/>
      <point x="180.0" y="349.0" type="curve" smooth="yes"/>
      <point x="180.0" y="361.6"/>
      <point x="181.6" y="383.2"/>
      <point x="194.4" y="403.0" type="curve"/>
      <point x="129.05720102996557" y="395.36063819971764"/>
      <point x="90.0" y="374.67080459770114"/>
      <point x="90.0" y="341.4" type="curve"/>
      <point x="90.0" y="287.036087394958"/>
      <point x="135.05499339731077" y="249.41147345587726"/>
      <point x="250.2" y="225.4" type="curve" smooth="yes"/>
      <point x="352.4" y="203.8" type="line" smooth="yes"/>
      <point x="441.07442656353413" y="185.35336670262197"/>
      <point x="470.4180762046872" y="157.0740393293458"/>
      <point x="484.0" y="106.6" type="curve"/>
      <point x="515.8677039229281" y="103.43608074829237"/>
      <point x="534.4" y="129.01013412816692"/>
      <point x="534.4" y="150.4" type="curve"/>
      <point x="534.4" y="212.15973770491803"/>
      <point x="489.0138170449638" y="255.67747338932142"/>
    </contour>
    <contour>
      <point x="307.0" y="-20.0" type="line" smooth="yes"/>
      <point x="447.4" y="-20.0"/>
      <point x="534.4" y="33.6"/>
      <point x="534.4" y="115.8" type="curve" smooth="yes"/>
      <point x="534.4" y="150.4" type="line"/>
      <point x="534.4" y="168.66666666666669"/>
      <point x="507.3486460846865" y="172.7241296258699"/>
      <point x="479.6" y="160.0" type="curve"/>
      <point x="472.2" y="99.80000000000001"/>
      <point x="421.2" y="70.0"/>
      <point x="300.0" y="70.0" type="curve" smooth="yes"/>
      <point x="192.8" y="70.0"/>
      <point x="139.0" y="83.6"/>
      <point x="82.8" y="130.0" type="curve"/>
      <point x="66.2" y="130.0" type="line"/>
      <point x="66.2" y="107.8"/>
      <point x="66.2" y="84.0"/>
      <point x="66.2" y="60.6" type="curve"/>
      <point x="66.2" y="16.6"/>
      <point x="149.8" y="-20.0"/>
      <point x="284.6" y="-20.0" type="curve" smooth="yes"/>
    </contour>
  </outline>
</glyph>
<glyph name="t" format="2">
  <advance width="600.0"/>
  <unicode hex="0074"/>
  <outline>
    <contour>
      <point x="533.8" y="140.0" type="line"/>
      <point x="519.2" y="140.0" type="line"/>
      <point x="475.2" y="90.6"/>
      <point x="422.4" y="70.0"/>
      <point x="354.6" y="70.0" type="curve" smooth="yes"/>
      <point x="305.4" y="70.0"/>
      <point x="270.2" y="75.4"/>
      <point x="232.4" y="103.6" type="curve"/>
      <point x="213.0" y="93.2"/>
      <point x="215.6" y="52.4"/>
      <point x="242.0" y="26.0" type="curve" smooth="yes"/>
      <point x="276.2" y="-8.2"/>
      <point x="298.4" y="-20.0"/>
      <point x="335.0" y="-20.0" type="curve" smooth="yes"/>
      <point x="344.0" y="-20.0"/>
      <point x="358.4" y="-20.0"/>
      <point x="367.4" y="-20.0" type="curve" smooth="yes"/>
      <point x="426.6" y="-20.0"/>
      <point x="481.6" y="0.4"/>
      <point x="511.6" y="30.4" type="curve" smooth="yes"/>
      <point x="526.0" y="44.8"/>
      <point x="533.8" y="62.6"/>
      <point x="533.8" y="85.4" type="curve"/>
    </contour>
    <contour>
      <point x="40.0" y="520.0" type="curve"/>
      <point x="40.0" y="488.0" type="line" smooth="yes"/>
      <point x="40.0" y="467.2"/>
      <point x="45.8" y="448.2"/>
      <point x="57.8" y="436.2" type="curve" smooth="yes"/>
      <point x="62.0" y="432.0"/>
      <point x="65.6" y="430.0"/>
      <point x="71.8" y="430.0" type="curve"/>
      <point x="137.6" y="430.0"/>
      <point x="208.20000000000002" y="430.0"/>
      <point x="274.0" y="430.0" type="curve"/>
      <point x="354.3807692307692" y="430.0"/>
      <point x="454.6192307692308" y="430.0"/>
      <point x="535.0" y="430.0" type="curve"/>
      <point x="535.0" y="446.0" type="line" smooth="yes"/>
      <point x="535.0" y="474.8"/>
      <point x="528.4" y="498.6"/>
      <point x="513.2" y="513.8" type="curve" smooth="yes"/>
      <point x="509.0" y="518.0"/>
      <point x="505.4" y="520.0"/>
      <point x="499.2" y="520.0" type="curve" smooth="yes"/>
      <point x="353.0" y="520.0"/>
      <point x="186.2" y="520.0"/>
    </contour>
    <contour>
      <point x="273.8" y="678.2" type="curve" smooth="yes"/>
      <point x="258.6" y="693.4"/>
      <point x="234.8" y="700.0"/>
      <point x="206.0" y="700.0" type="curve" smooth="yes"/>
      <point x="190.0" y="700.0" type="line"/>
      <point x="190.0" y="136.4" type="line" smooth="yes"/>
      <point x="190.0" y="90.2"/>
      <point x="207.6" y="60.400000000000006"/>
      <point x="242.0" y="26.0" type="curve"/>
      <point x="262.6" y="5.4"/>
      <point x="288.8" y="9.6"/>
      <point x="295.6" y="29.6" type="curve"/>
      <point x="284.2" y="65.0"/>
      <point x="280.0" y="105.8"/>
      <point x="280.0" y="159.2" type="curve" smooth="yes"/>
      <point x="280.0" y="664.2" type="line" smooth="yes"/>
      <point x="280.0" y="670.4"/>
      <point x="278.0" y="674.0"/>
    </contour>
  </outline>
</glyph>
<glyph name="u" format="2">
  <advance width="600.0"/>
  <unicode hex="0075"/>
  <outline>
    <contour>
      <point x="420.0" y="530.0" type="line"/>
      <point x="420.0" y="360.80410677618073"/>
      <point x="420.0" y="191.2"/>
      <point x="420.0" y="21.8" type="curve" smooth="yes"/>
      <point x="420.0" y="15.600000000000001"/>
      <point x="422.0" y="12.0"/>
      <point x="426.2" y="7.800000000000001" type="curve" smooth="yes"/>
      <point x="436.6" y="-2.5999999999999996"/>
      <point x="469.2" y="-10.0"/>
      <point x="498.0" y="-10.0" type="curve" smooth="yes"/>
      <point x="514.0" y="-10.0" type="line"/>
      <point x="514.0" y="102.6"/>
      <point x="514.0" y="216.4"/>
      <point x="514.0" y="329.0" type="curve" smooth="yes"/>
      <point x="514.0" y="383.8"/>
      <point x="514.0" y="439.40000000000003"/>
      <point x="514.0" y="494.2" type="curve" smooth="yes"/>
      <point x="514.0" y="500.4"/>
      <point x="512.0" y="504.0"/>
      <point x="507.8" y="508.2" type="curve" smooth="yes"/>
      <point x="492.6" y="523.4"/>
      <point x="464.8" y="530.0"/>
      <point x="436.0" y="530.0" type="curve" smooth="yes"/>
    </contour>
    <contour>
      <point x="216.4" y="-16.0" type="curve" smooth="yes"/>
      <point x="290.8" y="-16.0"/>
      <point x="377.2" y="43.0"/>
      <point x="428.0" y="108.0" type="curve" smooth="yes"/>
      <point x="449.6" y="134.6"/>
      <point x="455.4" y="154.4"/>
      <point x="454.2" y="195.4" type="curve"/>
      <point x="359.6" y="103.80000000000001"/>
      <point x="300.0" y="78.0"/>
      <point x="221.0" y="78.0" type="curve" smooth="yes"/>
      <point x="182.4" y="78.0"/>
      <point x="146.4" y="97.6"/>
      <point x="118.6" y="139.8" type="curve"/>
      <point x="97.0" y="136.2"/>
      <point x="86.0" y="119.0"/>
      <point x="86.0" y="105.0" type="curve" smooth="yes"/>
      <point x="86.0" y="56.400000000000006"/>
      <point x="154.4" y="-16.0"/>
    </contour>
    <contour>
      <point x="86.0" y="530.0" type="line"/>
      <point x="86.0" y="374.71223021582733"/>
      <point x="86.0" y="260.28776978417267"/>
      <point x="86.0" y="105.0" type="curve" smooth="yes"/>
      <point x="86.0" y="98.8"/>
      <point x="88.0" y="95.2"/>
      <point x="92.2" y="91.0" type="curve" smooth="yes"/>
      <point x="107.4" y="75.8"/>
      <point x="135.2" y="69.2"/>
      <point x="164.0" y="69.2" type="curve" smooth="yes"/>
      <point x="180.0" y="69.2" type="line"/>
      <point x="180.0" y="168.6"/>
      <point x="180.0" y="229.2"/>
      <point x="180.0" y="329.0" type="curve" smooth="yes"/>
      <point x="180.0" y="383.8"/>
      <point x="180.0" y="439.40000000000003"/>
      <point x="180.0" y="494.2" type="curve" smooth="yes"/>
      <point x="180.0" y="500.4"/>
      <point x="178.0" y="504.0"/>
      <point x="173.8" y="508.2" type="curve" smooth="yes"/>
      <point x="158.6" y="523.4"/>
      <point x="130.8" y="530.0"/>
      <point x="102.0" y="530.0" type="curve" smooth="yes"/>
    </contour>
  </outline>
</glyph>
<glyph name="v" format="2">
  <advance width="600.0"/>
  <unicode hex="0076"/>
  <outline>
    <contour>
      <point x="459.0" y="530.0" type="curve" smooth="yes"/>
      <point x="443.4" y="530.0" type="line"/>
      <point x="419.0105755950638" y="253.3178099419055"/>
      <point x="383.1625593871598" y="149.32794216522075"/>
      <point x="272.2" y="55.2" type="curve" smooth="yes"/>
      <point x="254.91456416404242" y="40.95688068748338"/>
      <point x="259.7808219178082" y="-10.0"/>
      <point x="300.4" y="-10.0" type="curve"/>
      <point x="335.0" y="-10.0" type="line"/>
      <point x="452.69800724398493" y="84.19921201459113"/>
      <point x="512.6073449972789" y="237.68485649358124"/>
      <point x="533.8" y="484.2" type="curve" smooth="yes"/>
      <point x="536.0" y="509.2"/>
      <point x="500.6" y="530.0"/>
    </contour>
    <contour>
      <point x="78.6" y="530.0" type="curve" smooth="yes"/>
      <point x="63.0" y="530.0" type="line"/>
      <point x="85.6248775537123" y="261.07344333001043"/>
      <point x="128.8" y="123.4"/>
      <point x="229.0" y="23.200000000000003" type="curve" smooth="yes"/>
      <point x="255.4" y="-3.2"/>
      <point x="278.0" y="-10.0"/>
      <point x="300.4" y="-10.0" type="curve"/>
      <point x="326.0514285714286" y="-10.0"/>
      <point x="342.0" y="4.2"/>
      <point x="342.0" y="37.8" type="curve"/>
      <point x="229.3002878025702" y="126.67473618097729"/>
      <point x="182.74238246219977" y="238.93969993820446"/>
      <point x="159.8" y="498.6" type="curve" smooth="yes"/>
      <point x="158.0" y="517.6"/>
      <point x="120.2" y="530.0"/>
    </contour>
  </outline>
</glyph>
<glyph name="w" format="2">
  <advance width="900.0"/>
  <unicode hex="0077"/>
  <guideline x="288.6" y="256.79999999999995" angle="90.0" identifier="24drJOKHsl"/>
  <guideline x="300.2" y="30.599999999999998" angle="90.0" identifier="5Z8gD6m6Wp"/>
  <outline>
    <contour>
      <point x="143.2" y="511.8" type="curve" smooth="yes"/>
      <point x="130.8" y="524.2"/>
      <point x="97.4" y="530.0"/>
      <point x="68.6" y="530.0" type="curve" smooth="yes"/>
      <point x="53.0" y="530.0" type="line"/>
      <point x="74.6" y="264.2"/>
      <point x="104.2" y="129.8"/>
      <point x="198.2" y="32.8" type="curve" smooth="yes"/>
      <point x="232.0" y="-1.6"/>
      <point x="256.4" y="-10.0"/>
      <point x="280.4" y="-10.0" type="curve"/>
      <point x="304.6" y="-10.0"/>
      <point x="319.6" y="4.2"/>
      <point x="319.6" y="37.0" type="curve"/>
      <point x="207.6" y="126.2"/>
      <point x="171.0" y="238.4"/>
      <point x="150.4" y="491.4" type="curve" smooth="yes"/>
      <point x="149.4" y="504.0"/>
      <point x="148.0" y="507.0"/>
    </contour>
    <contour>
      <point x="477.2" y="395.6" type="curve" smooth="yes"/>
      <point x="465.79231903791896" y="407.00768096208105"/>
      <point x="447.3" y="420.0"/>
      <point x="426.8" y="420.0" type="curve" smooth="yes"/>
      <point x="411.2" y="420.0" type="line"/>
      <point x="383.8" y="212.6"/>
      <point x="342.4" y="139.0"/>
      <point x="257.8" y="51.2" type="curve"/>
      <point x="244.2500973555118" y="34.83589508880766"/>
      <point x="252.12" y="-10.0"/>
      <point x="280.4" y="-10.0" type="curve"/>
      <point x="315.0" y="-10.0" type="line"/>
      <point x="400.0" y="73.0"/>
      <point x="454.8" y="190.2"/>
      <point x="482.0" y="378.2" type="curve"/>
      <point x="482.4" y="385.2"/>
      <point x="481.4" y="391.4"/>
    </contour>
    <contour>
      <point x="478.2" y="486.4" type="curve" smooth="yes"/>
      <point x="466.8" y="497.8"/>
      <point x="435.4" y="504.0"/>
      <point x="408.2" y="504.0" type="curve" smooth="yes"/>
      <point x="392.6" y="504.0" type="line"/>
      <point x="412.6" y="240.6"/>
      <point x="459.8" y="99.2"/>
      <point x="529.8" y="29.200000000000003" type="curve" smooth="yes"/>
      <point x="562.4" y="-3.4"/>
      <point x="584.4" y="-10.0"/>
      <point x="608.4" y="-10.0" type="curve"/>
      <point x="624.6" y="-10.0"/>
      <point x="634.6" y="4.8"/>
      <point x="634.6" y="37.6" type="curve"/>
      <point x="544.4" y="116.4"/>
      <point x="507.6" y="225.6"/>
      <point x="486.0" y="465.4" type="curve" smooth="yes"/>
      <point x="484.4" y="479.2"/>
      <point x="483.0" y="481.6"/>
    </contour>
    <contour>
      <point x="838.4" y="502.8" type="curve" smooth="yes"/>
      <point x="823.4" y="517.8"/>
      <point x="797.5176470588235" y="530.0"/>
      <point x="769.0" y="530.0" type="curve" smooth="yes"/>
      <point x="753.4" y="530.0" type="line"/>
      <point x="729.0" y="253.8"/>
      <point x="687.8" y="146.4"/>
      <point x="578.4" y="56.400000000000006" type="curve"/>
      <point x="564.6" y="39.800000000000004"/>
      <point x="574.8" y="-10.0"/>
      <point x="608.4" y="-10.0" type="curve"/>
      <point x="643.0" y="-10.0" type="line"/>
      <point x="761.8" y="85.0"/>
      <point x="822.2" y="237.6"/>
      <point x="843.8" y="482.4" type="curve" smooth="yes"/>
      <point x="844.8" y="492.4"/>
      <point x="843.2" y="498.0"/>
    </contour>
  </outline>
</glyph>
<glyph name="x" format="2">
  <advance width="600.0"/>
  <unicode hex="0078"/>
  <outline>
    <contour>
      <point x="520.6" y="-10.0" type="curve" smooth="yes"/>
      <point x="547.4" y="-10.0"/>
      <point x="558.0" y="3.2"/>
      <point x="558.0" y="38.4" type="curve"/>
      <point x="558.0" y="84.0" type="line"/>
      <point x="490.6" y="100.4"/>
      <point x="435.2" y="131.8"/>
      <point x="349.0" y="218.0" type="curve" smooth="yes"/>
      <point x="282.6" y="284.4"/>
      <point x="225.8" y="358.6"/>
      <point x="160.2" y="498.2" type="curve" smooth="yes"/>
      <point x="156.8" y="506.0"/>
      <point x="155.0" y="508.8"/>
      <point x="151.4" y="512.4" type="curve" smooth="yes"/>
      <point x="140.0" y="523.8"/>
      <point x="113.2" y="530.0"/>
      <point x="74.6" y="530.0" type="curve" smooth="yes"/>
      <point x="53.0" y="530.0" type="line"/>
      <point x="105.0" y="375.2"/>
      <point x="185.6" y="250.8"/>
      <point x="289.0" y="145.0" type="curve" smooth="yes"/>
      <point x="390.2" y="43.8"/>
      <point x="473.0" y="-10.0"/>
    </contour>
    <contour>
      <point x="544.2" y="506.2" type="curve" smooth="yes"/>
      <point x="528.2" y="522.2"/>
      <point x="498.6" y="530.0"/>
      <point x="473.0" y="530.0" type="curve" smooth="yes"/>
      <point x="457.4" y="530.0" type="line"/>
      <point x="411.6" y="388.6"/>
      <point x="372.2" y="328.8"/>
      <point x="278.8" y="256.0" type="curve"/>
      <point x="260.0" y="230.6"/>
      <point x="283.4" y="203.0"/>
      <point x="326.4" y="203.0" type="curve"/>
      <point x="444.8" y="296.6"/>
      <point x="508.2" y="372.6"/>
      <point x="547.4" y="486.2" type="curve" smooth="yes"/>
      <point x="550.8" y="496.0"/>
      <point x="549.4" y="501.0"/>
    </contour>
    <contour>
      <point x="48.0" y="13.8" type="curve" smooth="yes"/>
      <point x="64.0" y="-2.1999999999999997"/>
      <point x="88.8" y="-10.0"/>
      <point x="115.0" y="-10.0" type="curve" smooth="yes"/>
      <point x="130.6" y="-10.0" type="line"/>
      <point x="162.6" y="76.6"/>
      <point x="199.0" y="128.0"/>
      <point x="294.6" y="203.0" type="curve"/>
      <point x="308.2" y="224.4"/>
      <point x="291.4" y="253.6"/>
      <point x="251.2" y="253.6" type="curve"/>
      <point x="111.0" y="156.8"/>
      <point x="51.2" y="78.2"/>
      <point x="44.0" y="31.0" type="curve" smooth="yes"/>
      <point x="42.0" y="22.8"/>
      <point x="43.4" y="18.4"/>
    </contour>
  </outline>
</glyph>
<glyph name="y" format="2">
  <advance width="600.0"/>
  <unicode hex="0079"/>
  <outline>
    <contour>
      <point x="142.6" y="512.4" type="curve" smooth="yes"/>
      <point x="130.8" y="524.2"/>
      <point x="97.4" y="530.0"/>
      <point x="68.6" y="530.0" type="curve" smooth="yes"/>
      <point x="53.0" y="530.0" type="line"/>
      <point x="65.6" y="376.4" type="line" smooth="yes"/>
      <point x="75.50570119159067" y="256.7080109988096"/>
      <point x="104.65067128857501" y="156.54932871142498"/>
      <point x="185.0" y="76.2" type="curve" smooth="yes"/>
      <point x="247.3652272876765" y="13.834772712323499"/>
      <point x="308.04528301886796" y="4.0"/>
      <point x="351.2" y="4.0" type="curve"/>
      <point x="370.9142857142857" y="4.0"/>
      <point x="393.2" y="32.0"/>
      <point x="392.6" y="78.4" type="curve"/>
      <point x="341.8727272727273" y="84.0"/>
      <point x="292.81115523687225" y="92.98884476312773"/>
      <point x="251.6" y="134.2" type="curve" smooth="yes"/>
      <point x="194.5516320075925" y="191.2483679924075"/>
      <point x="168.6844765383677" y="255.74432406090298"/>
      <point x="159.4" y="378.8" type="curve" smooth="yes"/>
      <point x="150.4" y="495.6" type="line" smooth="yes"/>
      <point x="149.4" y="504.6"/>
      <point x="147.4" y="507.6"/>
    </contour>
    <contour>
      <point x="539.0" y="501.6" type="curve" smooth="yes"/>
      <point x="524.0" y="516.6"/>
      <point x="497.8" y="530.0"/>
      <point x="469.0" y="530.0" type="curve" smooth="yes"/>
      <point x="453.4" y="530.0" type="line"/>
      <point x="441.6" y="393.6" type="line" smooth="yes"/>
      <point x="421.0387077717087" y="163.09710256375445"/>
      <point x="371.5540761550035" y="33.95407615500345"/>
      <point x="243.8" y="-93.8" type="curve" smooth="yes"/>
      <point x="213.4" y="-124.2"/>
      <point x="182.2" y="-154.4"/>
      <point x="127.2" y="-195.6" type="curve"/>
      <point x="127.2" y="-226.2"/>
      <point x="140.0" y="-250.0"/>
      <point x="167.2" y="-250.0" type="curve" smooth="yes"/>
      <point x="198.2" y="-250.0"/>
      <point x="234.6" y="-236.2"/>
      <point x="276.8" y="-194.0" type="curve" smooth="yes"/>
      <point x="434.58349320814375" y="-36.63514160635223"/>
      <point x="512.8318858022067" y="128.3583478456665"/>
      <point x="533.6" y="367.0" type="curve" smooth="yes"/>
      <point x="543.2" y="481.2" type="line" smooth="yes"/>
      <point x="544.2" y="491.2"/>
      <point x="543.2" y="497.4"/>
    </contour>
    <contour>
      <point x="58.0" y="-160.0" type="curve"/>
      <point x="58.0" y="-176.0" type="line" smooth="yes"/>
      <point x="58.0" y="-204.8"/>
      <point x="64.6" y="-228.6"/>
      <point x="79.8" y="-243.8" type="curve" smooth="yes"/>
      <point x="84.0" y="-248.0"/>
      <point x="87.6" y="-250.0"/>
      <point x="93.8" y="-250.0" type="curve"/>
      <point x="130.0" y="-250.0"/>
      <point x="131.6" y="-250.0"/>
      <point x="167.2" y="-250.0" type="curve" smooth="yes"/>
      <point x="207.4" y="-250.0"/>
      <point x="240.0" y="-207.2"/>
      <point x="245.4" y="-160.0" type="curve"/>
      <point x="181.4" y="-160.0"/>
      <point x="119.0" y="-160.0"/>
    </contour>
  </outline>
</glyph>
<glyph name="z" format="2">
  <advance width="600.0"/>
  <unicode hex="007A"/>
  <outline>
    <contour>
      <point x="68.0" y="520.0" type="curve"/>
      <point x="68.0" y="504.0" type="line" smooth="yes"/>
      <point x="68.0" y="474.6"/>
      <point x="74.6" y="451.4"/>
      <point x="89.8" y="436.2" type="curve" smooth="yes"/>
      <point x="94.0" y="432.0"/>
      <point x="97.6" y="430.0"/>
      <point x="103.8" y="430.0" type="curve"/>
      <point x="161.4" y="430.0"/>
      <point x="201.4" y="430.0"/>
      <point x="259.0" y="430.0" type="curve" smooth="yes"/>
      <point x="344.4" y="430.0"/>
      <point x="446.6" y="430.0"/>
      <point x="532.0" y="430.0" type="curve"/>
      <point x="532.0" y="466.2"/>
      <point x="520.6" y="495.4"/>
      <point x="502.2" y="513.8" type="curve" smooth="yes"/>
      <point x="498.0" y="518.0"/>
      <point x="494.4" y="520.0"/>
      <point x="488.2" y="520.0" type="curve" smooth="yes"/>
      <point x="347.2" y="520.0"/>
      <point x="209.0" y="520.0"/>
    </contour>
    <contour>
      <point x="528.0" y="443.0" type="curve" smooth="yes"/>
      <point x="507.2" y="463.8"/>
      <point x="496.2" y="477.0"/>
      <point x="462.4" y="477.0" type="curve"/>
      <point x="376.8" y="329.2"/>
      <point x="209.2" y="180.8"/>
      <point x="68.0" y="90.0" type="curve"/>
      <point x="68.0" y="62.8"/>
      <point x="86.6" y="50.0"/>
      <point x="104.2" y="50.0" type="curve" smooth="yes"/>
      <point x="126.2" y="50.0"/>
      <point x="138.0" y="54.0"/>
      <point x="157.8" y="63.8" type="curve" smooth="yes"/>
      <point x="344.0" y="173.6"/>
      <point x="532.0" y="383.2"/>
      <point x="532.0" y="430.0" type="curve" smooth="yes"/>
      <point x="532.0" y="436.0"/>
      <point x="531.0" y="440.0"/>
    </contour>
    <contour>
      <point x="532.0" y="0.0" type="curve"/>
      <point x="532.0" y="16.0" type="line" smooth="yes"/>
      <point x="532.0" y="36.2"/>
      <point x="520.6" y="65.4"/>
      <point x="502.2" y="83.80000000000001" type="curve" smooth="yes"/>
      <point x="498.0" y="88.0"/>
      <point x="494.4" y="90.0"/>
      <point x="488.2" y="90.0" type="curve" smooth="yes"/>
      <point x="347.2" y="90.0"/>
      <point x="209.0" y="90.0"/>
      <point x="68.0" y="90.0" type="curve"/>
      <point x="68.0" y="74.0" type="line" smooth="yes"/>
      <point x="68.0" y="44.6"/>
      <point x="74.6" y="21.4"/>
      <point x="89.8" y="6.2" type="curve" smooth="yes"/>
      <point x="94.0" y="2.0"/>
      <point x="97.6" y="0.0"/>
      <point x="103.8" y="0.0" type="curve"/>
      <point x="161.4" y="0.0"/>
      <point x="201.4" y="0.0"/>
      <point x="259.0" y="0.0" type="curve" smooth="yes"/>
      <point x="344.4" y="0.0"/>
      <point x="446.6" y="0.0"/>
    </contour>
  </outline>
</glyph>
<glyph name="f.ss01" format="2">
  <advance width="600.0"/>
  <outline>
    <contour>
      <point x="239.6" y="628.2" type="curve"/>
      <point x="281.0" y="665.0"/>
      <point x="327.6" y="676.0"/>
      <point x="400.0" y="676.0" type="curve" smooth="yes"/>
      <point x="459.4" y="676.0"/>
      <point x="511.0" y="661.8"/>
      <point x="544.0" y="645.0" type="curve"/>
      <point x="560.0" y="645.0" type="line"/>
      <point x="560.0" y="664.6" type="line"/>
      <point x="560.0" y="695.4"/>
      <point x="553.0" y="717.2"/>
      <point x="544.0" y="727.4" type="curve" smooth="yes"/>
      <point x="531.6" y="740.6"/>
      <point x="481.6" y="760.0"/>
      <point x="431.0" y="760.0" type="curve"/>
      <point x="389.0" y="760.0" type="line"/>
      <point x="324.4" y="760.0"/>
      <point x="277.6" y="747.0"/>
      <point x="231.4" y="700.8" type="curve" smooth="yes"/>
      <point x="211.6" y="681.0"/>
      <point x="215.0" y="649.4"/>
    </contour>
    <contour>
      <point x="270.0" y="18.4" type="line"/>
      <point x="270.0" y="204.2"/>
      <point x="270.0" y="361.4"/>
      <point x="270.0" y="520.0" type="curve" smooth="yes"/>
      <point x="270.0" y="592.8"/>
      <point x="260.2" y="652.0"/>
      <point x="290.2" y="710.2" type="curve"/>
      <point x="268.6" y="724.8"/>
      <point x="247.8" y="717.2"/>
      <point x="231.4" y="700.8" type="curve" smooth="yes"/>
      <point x="194.6" y="664.0"/>
      <point x="180.0" y="628.8"/>
      <point x="180.0" y="563.2" type="curve"/>
      <point x="180.0" y="427.4"/>
      <point x="180.0" y="240.8"/>
      <point x="180.0" y="54.2" type="curve"/>
      <point x="180.0" y="48.0"/>
      <point x="182.0" y="44.400000000000006"/>
      <point x="186.2" y="40.2" type="curve" smooth="yes"/>
      <point x="201.4" y="25.0"/>
      <point x="225.2" y="18.4"/>
      <point x="254.0" y="18.4" type="curve" smooth="yes"/>
    </contour>
    <contour>
      <point x="40.0" y="520.0" type="curve"/>
      <point x="40.0" y="504.0" type="line" smooth="yes"/>
      <point x="40.0" y="474.0"/>
      <point x="47.0" y="451.0"/>
      <point x="61.8" y="436.2" type="curve" smooth="yes"/>
      <point x="66.4" y="431.6"/>
      <point x="70.0" y="430.0"/>
      <point x="75.8" y="430.0" type="curve"/>
      <point x="131.4" y="430.0"/>
      <point x="193.4" y="430.0"/>
      <point x="249.0" y="430.0" type="curve"/>
      <point x="313.2" y="430.0"/>
      <point x="451.0" y="430.0"/>
      <point x="510.0" y="430.0" type="curve"/>
      <point x="510.0" y="446.0" type="line" smooth="yes"/>
      <point x="510.0" y="476.4"/>
      <point x="503.0" y="499.0"/>
      <point x="488.2" y="513.8" type="curve" smooth="yes"/>
      <point x="483.6" y="518.4"/>
      <point x="480.0" y="520.0"/>
      <point x="474.2" y="520.0" type="curve" smooth="yes"/>
      <point x="359.6" y="520.0"/>
      <point x="155.0" y="520.0"/>
    </contour>
    <contour>
      <point x="50.0" y="90.0" type="curve"/>
      <point x="50.0" y="74.0" type="line" smooth="yes"/>
      <point x="50.0" y="44.0"/>
      <point x="57.0" y="21.0"/>
      <point x="71.8" y="6.2" type="curve" smooth="yes"/>
      <point x="76.4" y="1.6"/>
      <point x="80.0" y="0.0"/>
      <point x="85.8" y="0.0" type="curve"/>
      <point x="143.4" y="0.0"/>
      <point x="201.4" y="0.0"/>
      <point x="259.0" y="0.0" type="curve"/>
      <point x="347.2" y="0.0"/>
      <point x="411.8" y="0.0"/>
      <point x="500.0" y="0.0" type="curve"/>
      <point x="500.0" y="16.0" type="line" smooth="yes"/>
      <point x="500.0" y="37.6"/>
      <point x="486.6" y="67.4"/>
      <point x="470.2" y="83.80000000000001" type="curve" smooth="yes"/>
      <point x="465.6" y="88.4"/>
      <point x="462.0" y="90.0"/>
      <point x="456.2" y="90.0" type="curve" smooth="yes"/>
      <point x="312.4" y="90.0"/>
      <point x="193.8" y="90.0"/>
    </contour>
  </outline>
</glyph>
<glyph name="g.ver02" format="2">
  <advance width="600.0"/>
  <outline>
    <contour>
      <point x="315.0" y="459.0" type="curve" smooth="yes"/>
      <point x="372.8" y="459.0"/>
      <point x="427.2" y="445.6"/>
      <point x="458.0" y="421.0" type="curve"/>
      <point x="484.6" y="455.2"/>
      <point x="484.6" y="479.4"/>
      <point x="465.2" y="498.8" type="curve" smooth="yes"/>
      <point x="435.2" y="528.8"/>
      <point x="363.4" y="540.0"/>
      <point x="307.0" y="540.0" type="curve" smooth="yes"/>
      <point x="171.6" y="540.0"/>
      <point x="72.0" y="473.4"/>
      <point x="72.0" y="362.0" type="curve" smooth="yes"/>
      <point x="72.0" y="310.0" type="line" smooth="yes"/>
      <point x="72.0" y="261.0"/>
      <point x="85.2" y="235.4"/>
      <point x="132.8" y="187.8" type="curve" smooth="yes"/>
      <point x="152.2" y="168.4"/>
      <point x="186.8" y="170.8"/>
      <point x="200.4" y="186.4" type="curve"/>
      <point x="167.2" y="226.0"/>
      <point x="160.4" y="239.4"/>
      <point x="160.4" y="277.2" type="curve" smooth="yes"/>
      <point x="160.4" y="330.0" type="line" smooth="yes"/>
      <point x="160.4" y="422.4"/>
      <point x="215.6" y="459.0"/>
    </contour>
    <contour>
      <point x="297.0" y="217.0" type="curve" smooth="yes"/>
      <point x="239.8" y="217.0"/>
      <point x="171.4" y="223.2"/>
      <point x="122.0" y="250.8" type="curve"/>
      <point x="111.2" y="229.2"/>
      <point x="114.2" y="207.4"/>
      <point x="132.8" y="187.8" type="curve" smooth="yes"/>
      <point x="178.2" y="140.6"/>
      <point x="230.6" y="135.0"/>
      <point x="309.0" y="135.0" type="curve" smooth="yes"/>
      <point x="448.0" y="135.0"/>
      <point x="528.0" y="211.4"/>
      <point x="528.0" y="321.0" type="curve" smooth="yes"/>
      <point x="528.0" y="373.0" type="line" smooth="yes"/>
      <point x="528.0" y="415.4"/>
      <point x="515.6" y="448.4"/>
      <point x="465.2" y="498.8" type="curve" smooth="yes"/>
      <point x="449.2" y="514.8"/>
      <point x="405.4" y="511.8"/>
      <point x="390.2" y="496.6" type="curve"/>
      <point x="430.8" y="462.4"/>
      <point x="442.0" y="442.2"/>
      <point x="442.0" y="392.0" type="curve" smooth="yes"/>
      <point x="442.0" y="328.0" type="line" smooth="yes"/>
      <point x="442.0" y="261.4"/>
      <point x="385.2" y="217.0"/>
    </contour>
    <contour>
      <point x="120.0" y="61.2" type="curve" smooth="yes"/>
      <point x="120.0" y="48.2" type="line" smooth="yes"/>
      <point x="120.0" y="-7.600000000000001"/>
      <point x="162.2" y="-39.0"/>
      <point x="235.0" y="-39.0" type="curve" smooth="yes"/>
      <point x="432.0" y="-39.0" type="line" smooth="yes"/>
      <point x="455.2" y="-39.0"/>
      <point x="470.8" y="-56.2"/>
      <point x="470.8" y="-78.8" type="curve" smooth="yes"/>
      <point x="470.8" y="-123.6" type="line" smooth="yes"/>
      <point x="470.8" y="-160.2"/>
      <point x="466.6" y="-175.0"/>
      <point x="451.6" y="-201.0" type="curve"/>
      <point x="465.2" y="-205.8"/>
      <point x="502.2" y="-201.0"/>
      <point x="512.6" y="-190.6" type="curve" smooth="yes"/>
      <point x="546.4" y="-156.8"/>
      <point x="560.0" y="-131.6"/>
      <point x="560.0" y="-90.0" type="curve" smooth="yes"/>
      <point x="560.0" y="-49.0" type="line" smooth="yes"/>
      <point x="560.0" y="4.0"/>
      <point x="514.2" y="45.0"/>
      <point x="455.0" y="45.0" type="curve" smooth="yes"/>
      <point x="237.8" y="45.0" type="line" smooth="yes"/>
      <point x="216.4" y="45.0"/>
      <point x="210.0" y="51.400000000000006"/>
      <point x="210.0" y="72.8" type="curve" smooth="yes"/>
      <point x="210.0" y="97.8" type="line" smooth="yes"/>
      <point x="210.0" y="117.8"/>
      <point x="220.8" y="143.0"/>
      <point x="231.0" y="157.2" type="curve"/>
      <point x="231.0" y="163.8"/>
      <point x="228.6" y="167.8"/>
      <point x="222.0" y="170.2" type="curve" smooth="yes"/>
      <point x="187.8" y="170.2"/>
      <point x="120.0" y="107.4"/>
    </contour>
    <contour>
      <point x="529.0" y="-126.2" type="curve"/>
      <point x="457.0" y="-175.8"/>
      <point x="410.2" y="-180.0"/>
      <point x="330.2" y="-180.0" type="curve"/>
      <point x="242.0" y="-180.0" type="line"/>
      <point x="180.0" y="-180.0"/>
      <point x="149.0" y="-157.2"/>
      <point x="149.0" y="-109.0" type="curve" smooth="yes"/>
      <point x="149.0" y="-92.0" type="line" smooth="yes"/>
      <point x="149.0" y="-67.0"/>
      <point x="165.4" y="-33.2"/>
      <point x="199.4" y="-20.6" type="curve"/>
      <point x="199.4" y="-12.8"/>
      <point x="194.8" y="-5.600000000000001"/>
      <point x="186.6" y="-5.600000000000001" type="curve"/>
      <point x="115.8" y="-5.600000000000001"/>
      <point x="65.0" y="-58.6"/>
      <point x="65.0" y="-121.6" type="curve" smooth="yes"/>
      <point x="65.0" y="-135.0" type="line" smooth="yes"/>
      <point x="65.0" y="-199.0"/>
      <point x="126.4" y="-250.0"/>
      <point x="213.0" y="-250.0" type="curve"/>
      <point x="286.0" y="-250.0" type="line"/>
      <point x="389.2" y="-250.0"/>
      <point x="468.2" y="-235.0"/>
      <point x="512.6" y="-190.6" type="curve"/>
      <point x="533.4" y="-169.8"/>
      <point x="541.2" y="-138.4"/>
    </contour>
    <contour>
      <point x="448.2" y="482.2" type="curve" smooth="yes"/>
      <point x="519.6" y="545.6" type="line" smooth="yes"/>
      <point x="546.2" y="569.4"/>
      <point x="560.0" y="582.8"/>
      <point x="560.0" y="613.4" type="curve" smooth="yes"/>
      <point x="560.0" y="616.6"/>
      <point x="560.0" y="624.8"/>
      <point x="560.0" y="629.2" type="curve" smooth="yes"/>
      <point x="560.0" y="635.4"/>
      <point x="558.0" y="639.0"/>
      <point x="553.8" y="643.2" type="curve" smooth="yes"/>
      <point x="538.6" y="658.4"/>
      <point x="511.4" y="665.0"/>
      <point x="482.0" y="665.0" type="curve" smooth="yes"/>
      <point x="470.0" y="665.0" type="line"/>
      <point x="470.0" y="659.0"/>
      <point x="470.0" y="647.4"/>
      <point x="470.0" y="641.4" type="curve" smooth="yes"/>
      <point x="470.0" y="621.8"/>
      <point x="465.0" y="609.2"/>
      <point x="457.8" y="592.2" type="curve" smooth="yes"/>
      <point x="414.2" y="489.0" type="line"/>
      <point x="422.2" y="479.8"/>
      <point x="439.2" y="474.8"/>
    </contour>
  </outline>
</glyph>
<glyph name="r.ss01" format="2">
  <advance width="600.0"/>
  <outline>
    <contour>
      <point x="50.0" y="520.0" type="curve"/>
      <point x="50.0" y="504.0" type="line" smooth="yes"/>
      <point x="50.0" y="475.2"/>
      <point x="56.6" y="451.4"/>
      <point x="71.8" y="436.2" type="curve" smooth="yes"/>
      <point x="76.0" y="432.0"/>
      <point x="79.6" y="430.0"/>
      <point x="85.8" y="430.0" type="curve"/>
      <point x="127.4" y="430.0"/>
      <point x="160.8" y="430.0"/>
      <point x="202.4" y="430.0" type="curve"/>
      <point x="202.4" y="446.0" type="line" smooth="yes"/>
      <point x="202.4" y="475.6"/>
      <point x="194.6" y="520.0"/>
      <point x="161.8" y="520.0" type="curve" smooth="yes"/>
      <point x="120.2" y="520.0"/>
      <point x="91.6" y="520.0"/>
    </contour>
    <contour>
      <point x="240.0" y="28.4" type="line"/>
      <point x="240.0" y="145.2"/>
      <point x="240.0" y="261.4"/>
      <point x="240.0" y="378.2" type="curve"/>
      <point x="240.0" y="451.8"/>
      <point x="207.6" y="520.0"/>
      <point x="166.0" y="520.0" type="curve" smooth="yes"/>
      <point x="150.0" y="520.0" type="line"/>
      <point x="150.0" y="430.0"/>
      <point x="150.0" y="290.2"/>
      <point x="150.0" y="209.2" type="curve" smooth="yes"/>
      <point x="150.0" y="160.6"/>
      <point x="150.0" y="111.6"/>
      <point x="150.0" y="64.2" type="curve"/>
      <point x="150.0" y="58.0"/>
      <point x="152.0" y="54.400000000000006"/>
      <point x="156.2" y="50.2" type="curve" smooth="yes"/>
      <point x="171.4" y="35.0"/>
      <point x="195.2" y="28.4"/>
      <point x="224.0" y="28.4" type="curve" smooth="yes"/>
    </contour>
    <contour>
      <point x="50.0" y="90.0" type="curve"/>
      <point x="50.0" y="74.0" type="line" smooth="yes"/>
      <point x="50.0" y="45.2"/>
      <point x="56.6" y="21.4"/>
      <point x="71.8" y="6.2" type="curve" smooth="yes"/>
      <point x="76.0" y="2.0"/>
      <point x="79.6" y="0.0"/>
      <point x="85.8" y="0.0" type="curve"/>
      <point x="143.4" y="0.0"/>
      <point x="201.4" y="0.0"/>
      <point x="259.0" y="0.0" type="curve"/>
      <point x="337.6" y="0.0"/>
      <point x="341.4" y="0.0"/>
      <point x="420.0" y="0.0" type="curve"/>
      <point x="420.0" y="16.0" type="line" smooth="yes"/>
      <point x="420.0" y="44.8"/>
      <point x="413.4" y="68.6"/>
      <point x="398.2" y="83.80000000000001" type="curve" smooth="yes"/>
      <point x="394.0" y="88.0"/>
      <point x="390.4" y="90.0"/>
      <point x="384.2" y="90.0" type="curve"/>
      <point x="247.6" y="90.0"/>
      <point x="186.6" y="90.0"/>
    </contour>
    <contour>
      <point x="436.6" y="540.0" type="curve" smooth="yes"/>
      <point x="372.6" y="540.0"/>
      <point x="279.2" y="479.0"/>
      <point x="230.0" y="407.2" type="curve" smooth="yes"/>
      <point x="211.6" y="378.4"/>
      <point x="206.2" y="354.4"/>
      <point x="208.0" y="319.8" type="curve"/>
      <point x="295.8" y="420.8"/>
      <point x="354.8" y="447.2"/>
      <point x="414.0" y="447.2" type="curve" smooth="yes"/>
      <point x="454.0" y="447.2"/>
      <point x="484.4" y="428.6"/>
      <point x="514.2" y="392.4" type="curve"/>
      <point x="528.4" y="398.8"/>
      <point x="535.0" y="411.2"/>
      <point x="535.0" y="424.2" type="curve" smooth="yes"/>
      <point x="535.0" y="467.6"/>
      <point x="485.4" y="540.0"/>
    </contour>
    <contour>
      <point x="535.0" y="290.0" type="line"/>
      <point x="535.0" y="336.2"/>
      <point x="535.0" y="378.0"/>
      <point x="535.0" y="424.2" type="curve" smooth="yes"/>
      <point x="535.0" y="451.0"/>
      <point x="497.8" y="476.0"/>
      <point x="461.0" y="476.0" type="curve" smooth="yes"/>
      <point x="445.0" y="476.0" type="line"/>
      <point x="445.0" y="452.8"/>
      <point x="445.0" y="431.8"/>
      <point x="445.0" y="412.2" type="curve" smooth="yes"/>
      <point x="445.0" y="387.8"/>
      <point x="445.0" y="353.2"/>
      <point x="445.0" y="325.8" type="curve" smooth="yes"/>
      <point x="445.0" y="319.6"/>
      <point x="447.0" y="316.0"/>
      <point x="451.2" y="311.8" type="curve" smooth="yes"/>
      <point x="466.4" y="296.6"/>
      <point x="490.2" y="290.0"/>
      <point x="519.0" y="290.0" type="curve" smooth="yes"/>
    </contour>
  </outline>
</glyph>
<glyph name="r.ss02" format="2">
  <advance width="600.0"/>
  <outline>
    <contour>
      <point x="50.0" y="520.0" type="curve"/>
      <point x="50.0" y="504.0" type="line" smooth="yes"/>
      <point x="50.0" y="475.2"/>
      <point x="56.6" y="451.4"/>
      <point x="71.8" y="436.2" type="curve" smooth="yes"/>
      <point x="76.0" y="432.0"/>
      <point x="79.6" y="430.0"/>
      <point x="85.8" y="430.0" type="curve"/>
      <point x="133.8" y="430.0"/>
      <point x="173.4" y="430.0"/>
      <point x="221.4" y="430.0" type="curve"/>
      <point x="221.4" y="446.0" type="line" smooth="yes"/>
      <point x="221.4" y="475.6"/>
      <point x="213.6" y="520.0"/>
      <point x="180.8" y="520.0" type="curve" smooth="yes"/>
      <point x="132.8" y="520.0"/>
      <point x="98.0" y="520.0"/>
    </contour>
    <contour>
      <point x="259.0" y="-10.0" type="line"/>
      <point x="259.0" y="119.6"/>
      <point x="259.0" y="248.6"/>
      <point x="259.0" y="378.2" type="curve"/>
      <point x="259.0" y="451.8"/>
      <point x="226.6" y="520.0"/>
      <point x="185.0" y="520.0" type="curve" smooth="yes"/>
      <point x="165.0" y="520.0" type="line"/>
      <point x="165.0" y="430.0"/>
      <point x="165.0" y="290.2"/>
      <point x="165.0" y="209.2" type="curve" smooth="yes"/>
      <point x="165.0" y="147.8"/>
      <point x="165.0" y="86.0"/>
      <point x="165.0" y="25.8" type="curve"/>
      <point x="165.0" y="19.6"/>
      <point x="167.0" y="16.0"/>
      <point x="171.2" y="11.8" type="curve" smooth="yes"/>
      <point x="186.4" y="-3.4"/>
      <point x="214.2" y="-10.0"/>
      <point x="243.0" y="-10.0" type="curve" smooth="yes"/>
    </contour>
    <contour>
      <point x="420.6" y="540.0" type="curve" smooth="yes"/>
      <point x="368.4" y="540.0"/>
      <point x="292.6" y="480.4"/>
      <point x="249.0" y="407.2" type="curve" smooth="yes"/>
      <point x="231.2" y="376.6"/>
      <point x="225.2" y="351.4"/>
      <point x="227.0" y="315.6" type="curve"/>
      <point x="301.8" y="419.8"/>
      <point x="360.0" y="447.2"/>
      <point x="414.0" y="447.2" type="curve" smooth="yes"/>
      <point x="454.0" y="447.2"/>
      <point x="484.4" y="428.6"/>
      <point x="514.2" y="392.4" type="curve"/>
      <point x="528.4" y="398.8"/>
      <point x="535.0" y="411.2"/>
      <point x="535.0" y="424.2" type="curve" smooth="yes"/>
      <point x="535.0" y="467.6"/>
      <point x="477.4" y="540.0"/>
    </contour>
    <contour>
      <point x="535.0" y="250.0" type="line"/>
      <point x="535.0" y="310.8"/>
      <point x="535.0" y="363.8"/>
      <point x="535.0" y="424.2" type="curve" smooth="yes"/>
      <point x="535.0" y="451.0"/>
      <point x="497.8" y="476.0"/>
      <point x="461.0" y="476.0" type="curve" smooth="yes"/>
      <point x="445.0" y="476.0" type="line"/>
      <point x="445.0" y="452.8"/>
      <point x="445.0" y="431.8"/>
      <point x="445.0" y="412.2" type="curve" smooth="yes"/>
      <point x="445.0" y="375.8"/>
      <point x="445.0" y="327.6"/>
      <point x="445.0" y="285.8" type="curve" smooth="yes"/>
      <point x="445.0" y="279.6"/>
      <point x="447.0" y="276.0"/>
      <point x="451.2" y="271.8" type="curve" smooth="yes"/>
      <point x="466.4" y="256.6"/>
      <point x="490.2" y="250.0"/>
      <point x="519.0" y="250.0" type="curve" smooth="yes"/>
    </contour>
  </outline>
</glyph>
<glyph name="s.alt1" format="2">
  <advance width="600.0"/>
  <outline>
    <contour>
      <point x="384.4" y="254.6" type="curve" smooth="yes"/>
      <point x="291.6" y="272.8" type="line" smooth="yes"/>
      <point x="195.4" y="291.6"/>
      <point x="180.0" y="309.0"/>
      <point x="180.0" y="333.0" type="curve" smooth="yes"/>
      <point x="180.0" y="345.6"/>
      <point x="183.6" y="366.4"/>
      <point x="190.8" y="383.6" type="curve"/>
      <point x="129.4" y="383.6"/>
      <point x="90.0" y="356.6"/>
      <point x="90.0" y="322.2" type="curve"/>
      <point x="90.0" y="271.2"/>
      <point x="141.8" y="236.8"/>
      <point x="259.8" y="212.2" type="curve" smooth="yes"/>
      <point x="352.4" y="193.0" type="line" smooth="yes"/>
      <point x="439.8" y="175.0"/>
      <point x="473.0" y="155.2"/>
      <point x="496.4" y="109.6" type="curve"/>
      <point x="521.2" y="109.6"/>
      <point x="534.4" y="122.0"/>
      <point x="534.4" y="148.8" type="curve"/>
      <point x="534.4" y="198.0"/>
      <point x="488.2" y="234.4"/>
    </contour>
    <contour>
      <point x="300.0" y="-20.0" type="curve" smooth="yes"/>
      <point x="439.2" y="-20.0"/>
      <point x="534.4" y="32.8"/>
      <point x="534.4" y="110.2" type="curve" smooth="yes"/>
      <point x="534.4" y="148.8" type="line"/>
      <point x="534.4" y="170.0"/>
      <point x="511.4" y="179.4"/>
      <point x="492.8" y="171.6" type="curve"/>
      <point x="472.2" y="106.0"/>
      <point x="413.6" y="70.0"/>
      <point x="300.0" y="70.0" type="curve" smooth="yes"/>
      <point x="195.6" y="70.0"/>
      <point x="149.8" y="84.0"/>
      <point x="92.8" y="130.0" type="curve"/>
      <point x="66.2" y="130.0" type="line"/>
      <point x="66.2" y="111.4"/>
      <point x="66.2" y="91.2"/>
      <point x="66.2" y="71.4" type="curve"/>
      <point x="65.4" y="17.0"/>
      <point x="160.4" y="-20.0"/>
    </contour>
    <contour>
      <point x="390.0" y="540.0" type="curve" smooth="yes"/>
      <point x="260.8" y="540.0"/>
      <point x="90.0" y="435.2"/>
      <point x="90.0" y="357.2" type="curve" smooth="yes"/>
      <point x="90.0" y="322.2" type="line" smooth="yes"/>
      <point x="90.0" y="289.8"/>
      <point x="145.0" y="278.2"/>
      <point x="188.4" y="278.2" type="curve"/>
      <point x="181.8" y="295.6"/>
      <point x="180.0" y="317.4"/>
      <point x="180.0" y="333.0" type="curve" smooth="yes"/>
      <point x="180.0" y="374.2"/>
      <point x="308.6" y="450.0"/>
      <point x="389.4" y="450.0" type="curve" smooth="yes"/>
      <point x="408.4" y="450.0"/>
      <point x="430.0" y="444.0"/>
      <point x="458.0" y="430.0" type="curve"/>
      <point x="487.2" y="459.2"/>
      <point x="486.0" y="488.4"/>
      <point x="470.8" y="503.6" type="curve"/>
      <point x="448.6" y="527.0"/>
      <point x="419.6" y="540.0"/>
    </contour>
    <contour>
      <point x="510.0" y="420.0" type="curve"/>
      <point x="510.0" y="449.6"/>
      <point x="495.6" y="478.8"/>
      <point x="470.8" y="503.6" type="curve"/>
      <point x="455.4" y="519.6"/>
      <point x="422.0" y="509.8"/>
      <point x="399.0" y="490.4" type="curve"/>
      <point x="413.6" y="465.0"/>
      <point x="420.0" y="441.6"/>
      <point x="420.0" y="427.8" type="curve"/>
      <point x="420.0" y="418.6"/>
      <point x="420.0" y="409.2"/>
      <point x="420.0" y="400.0" type="curve"/>
      <point x="420.0" y="367.0"/>
      <point x="441.0" y="350.0"/>
      <point x="482.8" y="350.0" type="curve" smooth="yes"/>
      <point x="510.0" y="350.0" type="line"/>
      <point x="510.0" y="373.8"/>
      <point x="510.0" y="397.4"/>
    </contour>
  </outline>
</glyph>
